<svg width="40" height="40" viewBox="0 0 40 40" fill="none" xmlns="http://www.w3.org/2000/svg">
<g id="arrow_drop_down">
<mask id="mask0_3407_9630" style="mask-type:alpha" maskUnits="userSpaceOnUse" x="0" y="0" width="40" height="40">
<rect id="Bounding box" width="40" height="40" fill="#D9D9D9"/>
</mask>
<g mask="url(#mask0_3407_9630)">
<path id="arrow_drop_down_2" d="M19.1303 23.2825L13.1632 17.2921C13.0707 17.1993 13.0042 17.1024 12.9637 17.0013C12.9231 16.9004 12.9028 16.7992 12.9028 16.6975C12.9028 16.4939 12.9795 16.3094 13.1328 16.1442C13.2859 15.9786 13.4852 15.8958 13.7307 15.8958H26.2607C26.5105 15.8958 26.7123 15.98 26.8662 16.1483C27.0201 16.3164 27.097 16.5082 27.097 16.7237C27.097 16.751 27.0089 16.941 26.8328 17.2937L20.8695 23.2825C20.7589 23.3931 20.6226 23.4794 20.4603 23.5417C20.2984 23.6039 20.1449 23.635 19.9999 23.635C19.8549 23.635 19.7014 23.6039 19.5395 23.5417C19.3773 23.4794 19.2409 23.3931 19.1303 23.2825Z" fill="#2F2F2F"/>
</g>
</g>
</svg>
