<svg width="20" height="21" viewBox="0 0 20 21" fill="none" xmlns="http://www.w3.org/2000/svg">
<g id="arrow_drop_down">
<mask id="mask0_3062_3489" style="mask-type:alpha" maskUnits="userSpaceOnUse" x="0" y="0" width="20" height="21">
<rect id="Bounding box" y="0.5" width="20" height="20" fill="#D9D9D9"/>
</mask>
<g mask="url(#mask0_3062_3489)">
<path id="arrow_drop_down_2" d="M9.41673 12.4163L7.25006 10.2497C6.98617 9.98579 6.92714 9.6837 7.07298 9.34342C7.21881 9.00315 7.47923 8.83301 7.85423 8.83301H12.1459C12.5209 8.83301 12.7813 9.00315 12.9271 9.34342C13.073 9.6837 13.0139 9.98579 12.7501 10.2497L10.5834 12.4163C10.5001 12.4997 10.4098 12.5622 10.3126 12.6038C10.2153 12.6455 10.1112 12.6663 10.0001 12.6663C9.88895 12.6663 9.78478 12.6455 9.68756 12.6038C9.59034 12.5622 9.50006 12.4997 9.41673 12.4163Z" fill="#2F2F2F"/>
</g>
</g>
</svg>
