<svg width="60" height="61" viewBox="0 0 60 61" fill="none" xmlns="http://www.w3.org/2000/svg">
<g id="award_star">
<mask id="mask0_2516_11729" style="mask-type:alpha" maskUnits="userSpaceOnUse" x="0" y="0" width="60" height="61">
<rect id="Bounding box" y="0.5" width="60" height="60" fill="#D9D9D9"/>
</mask>
<g mask="url(#mask0_2516_11729)">
<path id="award_star_2" d="M30 36.6875L34.8125 39.5625C35.2708 39.8542 35.7188 39.8438 36.1562 39.5312C36.5938 39.2188 36.75 38.7917 36.625 38.25L35.375 32.8125L39.625 29.125C40.0417 28.75 40.1667 28.3021 40 27.7812C39.8333 27.2604 39.4583 26.9792 38.875 26.9375L33.3125 26.5L31.125 21.3125C30.9167 20.8125 30.5417 20.5625 30 20.5625C29.4583 20.5625 29.0833 20.8125 28.875 21.3125L26.6875 26.5L21.125 26.9375C20.5417 26.9792 20.1667 27.2604 20 27.7812C19.8333 28.3021 19.9583 28.75 20.375 29.125L24.625 32.8125L23.375 38.25C23.25 38.7917 23.4063 39.2188 23.8438 39.5312C24.2812 39.8438 24.7292 39.8542 25.1875 39.5625L30 36.6875ZM21.625 50.5H15C13.625 50.5 12.4479 50.0104 11.4688 49.0312C10.4896 48.0521 10 46.875 10 45.5V38.875L5.1875 34C4.72917 33.5 4.375 32.9479 4.125 32.3438C3.875 31.7396 3.75 31.125 3.75 30.5C3.75 29.875 3.875 29.2604 4.125 28.6562C4.375 28.0521 4.72917 27.5 5.1875 27L10 22.125V15.5C10 14.125 10.4896 12.9479 11.4688 11.9688C12.4479 10.9896 13.625 10.5 15 10.5H21.625L26.5 5.6875C27 5.22917 27.5521 4.875 28.1562 4.625C28.7604 4.375 29.375 4.25 30 4.25C30.625 4.25 31.2396 4.375 31.8438 4.625C32.4479 4.875 33 5.22917 33.5 5.6875L38.375 10.5H45C46.375 10.5 47.5521 10.9896 48.5312 11.9688C49.5104 12.9479 50 14.125 50 15.5V22.125L54.8125 27C55.2708 27.5 55.625 28.0521 55.875 28.6562C56.125 29.2604 56.25 29.875 56.25 30.5C56.25 31.125 56.125 31.7396 55.875 32.3438C55.625 32.9479 55.2708 33.5 54.8125 34L50 38.875V45.5C50 46.875 49.5104 48.0521 48.5312 49.0312C47.5521 50.0104 46.375 50.5 45 50.5H38.375L33.5 55.3125C33 55.7708 32.4479 56.125 31.8438 56.375C31.2396 56.625 30.625 56.75 30 56.75C29.375 56.75 28.7604 56.625 28.1562 56.375C27.5521 56.125 27 55.7708 26.5 55.3125L21.625 50.5Z" fill="#CDE347"/>
</g>
</g>
</svg>
