<svg width="36" height="23" viewBox="0 0 36 23" fill="none" xmlns="http://www.w3.org/2000/svg">
<path id="Vector" d="M0.531604 0.0335109C0.452027 0.0841512 0.509901 0.178197 0.853532 0.53268C1.02354 0.709921 1.21163 0.919716 1.26951 1.00291C1.331 1.08611 1.56973 1.37186 1.80123 1.63953C2.03273 1.9072 2.3004 2.22551 2.39806 2.3485C2.49211 2.47148 2.73807 2.76085 2.93702 2.99597C3.13958 3.23108 3.32406 3.45897 3.34576 3.50237C3.3747 3.55301 3.38555 4.10644 3.38555 5.35074C3.38555 7.04719 3.38916 7.12677 3.45427 7.15933C3.49045 7.18103 3.53023 7.18826 3.54109 7.17379C3.55194 7.16294 4.14515 7.15571 4.85773 7.15933C6.0514 7.16294 7.11846 7.20997 8.06978 7.30763C9.17663 7.41614 10.7139 7.7019 11.3216 7.90446C11.4699 7.9551 11.6218 7.99489 11.658 7.99489C11.6942 7.99489 11.8208 8.04553 11.9401 8.10341C12.0595 8.1649 12.1861 8.21192 12.2223 8.21192C12.3633 8.21192 13.2496 8.62789 13.4051 8.76896C13.4557 8.81599 13.557 8.88833 13.6294 8.93174C13.756 9.0077 14.0634 9.33324 14.2949 9.6407C14.3564 9.72028 14.4939 9.94816 14.5988 10.1471C14.7651 10.4582 14.7977 10.5522 14.8303 10.8163C14.8483 10.9863 14.8628 11.2576 14.8628 11.4203C14.852 12.0895 14.4432 13.1855 13.9621 13.8366C13.8609 13.9741 13.7487 14.1405 13.7198 14.2019C13.6872 14.2634 13.5787 14.3937 13.4738 14.4913C13.3725 14.589 13.2387 14.7337 13.1808 14.8132C12.9529 15.1207 11.7738 16.2565 11.4157 16.5133C11.3144 16.5857 10.7863 16.9908 10.4752 17.2404C10.1858 17.4682 9.70473 17.7974 9.66133 17.7974C9.63601 17.7974 9.5492 17.8625 9.46962 17.9421C9.3394 18.0651 9.30323 18.1374 9.1911 18.51C9.11875 18.7451 9.02832 19.0345 8.98853 19.1538C8.94513 19.2732 8.85832 19.5734 8.79683 19.823C8.73172 20.0726 8.62682 20.4307 8.56533 20.6188C8.50022 20.8069 8.40979 21.118 8.36277 21.3061C8.31574 21.4942 8.23255 21.7871 8.17829 21.9571C8.04084 22.3767 7.96488 22.677 7.9902 22.7023C8.01552 22.7276 8.31574 22.4997 8.57618 22.2501C8.69555 22.138 8.89811 21.9644 9.02471 21.8631C9.15131 21.7654 9.3394 21.6208 9.44068 21.5448C9.54196 21.4652 9.79516 21.2916 10.005 21.1578C10.2148 21.0203 10.4499 20.8648 10.5294 20.8105C10.6958 20.6948 11.5386 20.2354 11.8859 20.0726C12.0161 20.0111 12.3561 19.8483 12.6455 19.7073C12.9349 19.5698 13.2532 19.4396 13.3508 19.4179C13.4521 19.3998 13.6185 19.3347 13.7234 19.2768C13.9115 19.1719 14.5554 18.944 14.8339 18.8826C14.9135 18.8645 15.1088 18.8174 15.2679 18.774C15.8177 18.6257 16.2807 18.5172 16.4435 18.4991C16.5339 18.4883 16.722 18.4521 16.8595 18.4159C17.0006 18.3762 17.3478 18.311 17.6372 18.2676C17.9265 18.2242 18.2593 18.1772 18.3787 18.1591C18.7115 18.1085 19.9485 18.0072 19.9811 18.0289C19.9992 18.0398 20.1149 18.0325 20.2452 18.0144C20.5273 17.971 21.8801 17.9674 22.032 18.0072C22.184 18.0506 22.1912 18.1447 22.0465 18.1736C21.985 18.1844 21.8873 18.1953 21.8295 18.1953C21.7282 18.1953 21.0699 18.4485 20.9831 18.5208C20.9613 18.5389 20.7913 18.604 20.6033 18.6655C20.4152 18.7306 20.1692 18.8283 20.0607 18.8826C19.6556 19.096 19.3879 19.219 19.2396 19.2624C19.1564 19.2877 18.9502 19.389 18.7874 19.4902C18.621 19.5879 18.2666 19.7832 17.9989 19.9207C17.7312 20.0581 17.4129 20.239 17.2935 20.3222C17.0331 20.5103 16.6859 20.7382 16.411 20.9046C16.2988 20.9733 16.0131 21.1867 15.778 21.3748C15.5392 21.5665 15.2571 21.7908 15.1486 21.874C14.9098 22.0584 14.1285 22.818 14.1285 22.8651C14.1285 22.8831 17.2104 22.8976 22.0139 22.8976C28.684 22.8976 29.903 22.8904 29.9211 22.847C29.9319 22.8216 29.874 22.6046 29.7981 22.3695C29.6389 21.8957 29.4942 21.429 29.3098 20.7997C29.241 20.5718 29.1072 20.1377 29.0168 19.8411C28.9227 19.5409 28.8214 19.2009 28.7925 19.0851C28.7636 18.9694 28.7093 18.8138 28.6731 18.7415C28.637 18.6691 28.5863 18.4955 28.5646 18.3581C28.514 18.0759 28.4489 17.9783 28.221 17.8625C28.1414 17.8227 28.0329 17.7468 27.9823 17.6925C27.928 17.6419 27.805 17.5587 27.7074 17.5117C27.6097 17.4646 27.4686 17.3706 27.3927 17.3019C27.3203 17.2367 27.2444 17.1825 27.2263 17.1825C27.2082 17.1825 27.0961 17.0921 26.9731 16.9835C26.8501 16.875 26.7307 16.7846 26.709 16.7846C26.6873 16.7846 26.5607 16.6833 26.4269 16.5603C26.2931 16.4337 26.1267 16.2927 26.0543 16.242C25.8409 16.0937 24.3542 14.5781 24.1915 14.343C23.591 13.4713 23.374 13.124 23.3053 12.9142C23.2727 12.8238 23.2148 12.6719 23.1714 12.5742C22.8459 11.8472 22.864 10.7656 23.2112 10.0784C23.5476 9.42005 24.2855 8.68577 25.0632 8.24448C25.2188 8.15766 25.4466 8.02383 25.5696 7.94425C25.6926 7.86829 25.9386 7.75254 26.1194 7.68743C26.2967 7.61871 26.568 7.51019 26.7199 7.44146C26.8718 7.37274 27.1395 7.27869 27.3167 7.2389C27.4939 7.1955 27.6893 7.14486 27.7472 7.12677C27.8086 7.10869 28.0112 7.0689 28.1993 7.03634C28.3874 7.00379 28.6406 6.94953 28.76 6.90974C28.8793 6.87357 29.0747 6.81931 29.194 6.79038C29.7908 6.64207 31.093 6.20439 31.462 6.02715C31.6067 5.95481 31.8273 5.868 31.9467 5.82821C32.1854 5.75225 32.4278 5.64012 32.5797 5.5316C32.6303 5.49543 32.7425 5.44117 32.8329 5.405C32.9197 5.36883 33.0825 5.27478 33.191 5.19159C33.2995 5.10839 33.4731 4.99626 33.5708 4.93839C33.8674 4.772 34.3087 4.41028 34.6813 4.03048C35.014 3.69408 35.1949 3.44088 35.3613 3.09725C35.4011 3.01405 35.4517 2.92363 35.4734 2.89107C35.4987 2.85852 35.506 2.80426 35.4951 2.7717C35.4734 2.71745 35.0394 2.71383 30.0658 2.71383H24.6581L24.6038 2.63425C24.5532 2.56553 24.546 2.37743 24.546 1.31399C24.546 0.127557 24.5423 0.0732997 24.4772 0.0371281C24.3868 -0.00989508 0.607565 -0.0135123 0.531604 0.0335109Z" fill="white"/>
</svg>
