<svg width="40" height="40" viewBox="0 0 40 40" fill="none" xmlns="http://www.w3.org/2000/svg">
<g id="Frame 928">
<mask id="mask0_3292_29472" style="mask-type:alpha" maskUnits="userSpaceOnUse" x="0" y="0" width="40" height="40">
<rect id="Bounding box" width="40" height="40" fill="#D9D9D9"/>
</mask>
<g mask="url(#mask0_3292_29472)">
<path id="arrow_back" d="M14.3396 21.6249L21.1683 28.4536C21.5006 28.7859 21.6718 29.1727 21.6821 29.6141C21.6924 30.0554 21.5285 30.4518 21.1904 30.8032C20.8521 31.1421 20.4622 31.3064 20.0208 31.2961C19.5795 31.2859 19.1924 31.1141 18.8596 30.7807L9.24334 21.1524C9.08723 20.996 8.96265 20.817 8.86959 20.6153C8.77654 20.4136 8.73001 20.2063 8.73001 19.9932C8.73001 19.7802 8.77654 19.5728 8.86959 19.3711C8.96265 19.1695 9.08154 18.9961 9.22626 18.8511L18.8613 9.21656C19.2201 8.85767 19.6158 8.67822 20.0483 8.67822C20.4806 8.67822 20.8613 8.85767 21.1904 9.21656C21.5285 9.54544 21.6975 9.92766 21.6975 10.3632C21.6975 10.7991 21.5306 11.1839 21.1967 11.5178L14.3396 18.3749H30.2983C30.7411 18.3749 31.1224 18.5341 31.4421 18.8524C31.7621 19.171 31.9221 19.5506 31.9221 19.9911C31.9221 20.4317 31.7621 20.8142 31.4421 21.1386C31.1224 21.4628 30.7411 21.6249 30.2983 21.6249H14.3396Z" fill="white"/>
</g>
</g>
</svg>
