<svg width="40" height="40" viewBox="0 0 40 40" fill="none" xmlns="http://www.w3.org/2000/svg">
<g id="auto_awesome_mosaic">
<mask id="mask0_2495_7407" style="mask-type:alpha" maskUnits="userSpaceOnUse" x="0" y="0" width="40" height="40">
<rect id="Bounding box" width="40" height="40" fill="#D9D9D9"/>
</mask>
<g mask="url(#mask0_2495_7407)">
<path id="auto_awesome_mosaic_2" d="M18.5417 33.625H9.16667C8.41839 33.625 7.76604 33.3468 7.20963 32.7904C6.65321 32.234 6.375 31.5816 6.375 30.8333V9.16667C6.375 8.39894 6.65321 7.74174 7.20963 7.19504C7.76604 6.64835 8.41839 6.375 9.16667 6.375H18.5417V33.625ZM21.4583 18.5417V6.375H30.8333C31.6011 6.375 32.2583 6.64835 32.805 7.19504C33.3517 7.74174 33.625 8.39894 33.625 9.16667V18.5417H21.4583ZM21.4583 33.625V21.4583H33.625V30.8333C33.625 31.5816 33.3517 32.234 32.805 32.7904C32.2583 33.3468 31.6011 33.625 30.8333 33.625H21.4583Z" fill="#2F2F2F"/>
</g>
</g>
</svg>
