<svg width="30" height="31" viewBox="0 0 30 31" fill="none" xmlns="http://www.w3.org/2000/svg">
<g id="crop_free">
<mask id="mask0_3062_3485" style="mask-type:alpha" maskUnits="userSpaceOnUse" x="0" y="0" width="30" height="31">
<rect id="Bounding box" y="0.5" width="30" height="30" fill="#D9D9D9"/>
</mask>
<g mask="url(#mask0_3062_3485)">
<path id="crop_free_2" d="M5 11.75C4.64583 11.75 4.34896 11.6302 4.10938 11.3906C3.86979 11.151 3.75 10.8542 3.75 10.5V6.75C3.75 6.0625 3.99479 5.47396 4.48438 4.98438C4.97396 4.49479 5.5625 4.25 6.25 4.25H10C10.3542 4.25 10.651 4.36979 10.8906 4.60938C11.1302 4.84896 11.25 5.14583 11.25 5.5C11.25 5.85417 11.1302 6.15104 10.8906 6.39062C10.651 6.63021 10.3542 6.75 10 6.75H6.25V10.5C6.25 10.8542 6.13021 11.151 5.89062 11.3906C5.65104 11.6302 5.35417 11.75 5 11.75ZM6.25 26.75C5.5625 26.75 4.97396 26.5052 4.48438 26.0156C3.99479 25.526 3.75 24.9375 3.75 24.25V20.5C3.75 20.1458 3.86979 19.849 4.10938 19.6094C4.34896 19.3698 4.64583 19.25 5 19.25C5.35417 19.25 5.65104 19.3698 5.89062 19.6094C6.13021 19.849 6.25 20.1458 6.25 20.5V24.25H10C10.3542 24.25 10.651 24.3698 10.8906 24.6094C11.1302 24.849 11.25 25.1458 11.25 25.5C11.25 25.8542 11.1302 26.151 10.8906 26.3906C10.651 26.6302 10.3542 26.75 10 26.75H6.25ZM20 26.75C19.6458 26.75 19.349 26.6302 19.1094 26.3906C18.8698 26.151 18.75 25.8542 18.75 25.5C18.75 25.1458 18.8698 24.849 19.1094 24.6094C19.349 24.3698 19.6458 24.25 20 24.25H23.75V20.5C23.75 20.1458 23.8698 19.849 24.1094 19.6094C24.349 19.3698 24.6458 19.25 25 19.25C25.3542 19.25 25.651 19.3698 25.8906 19.6094C26.1302 19.849 26.25 20.1458 26.25 20.5V24.25C26.25 24.9375 26.0052 25.526 25.5156 26.0156C25.026 26.5052 24.4375 26.75 23.75 26.75H20ZM25 11.75C24.6458 11.75 24.349 11.6302 24.1094 11.3906C23.8698 11.151 23.75 10.8542 23.75 10.5V6.75H20C19.6458 6.75 19.349 6.63021 19.1094 6.39062C18.8698 6.15104 18.75 5.85417 18.75 5.5C18.75 5.14583 18.8698 4.84896 19.1094 4.60938C19.349 4.36979 19.6458 4.25 20 4.25H23.75C24.4375 4.25 25.026 4.49479 25.5156 4.98438C26.0052 5.47396 26.25 6.0625 26.25 6.75V10.5C26.25 10.8542 26.1302 11.151 25.8906 11.3906C25.651 11.6302 25.3542 11.75 25 11.75Z" fill="white"/>
</g>
</g>
</svg>
