<svg width="31" height="30" viewBox="0 0 31 30" fill="none" xmlns="http://www.w3.org/2000/svg">
<g id="delete">
<mask id="mask0_3371_9749" style="mask-type:alpha" maskUnits="userSpaceOnUse" x="0" y="0" width="31" height="30">
<rect id="Bounding box" x="0.5" width="30" height="30" fill="#D9D9D9"/>
</mask>
<g mask="url(#mask0_3371_9749)">
<path id="delete_2" d="M10.2617 25.4409C9.58505 25.4409 9.00964 25.2038 8.53547 24.7297C8.0613 24.2555 7.82422 23.6801 7.82422 23.0034V8.42529H7.40234C7.07005 8.42529 6.7838 8.30592 6.54359 8.06717C6.30359 7.82821 6.18359 7.54352 6.18359 7.21311C6.18359 6.88269 6.30359 6.59581 6.54359 6.35248C6.7838 6.10936 7.07005 5.98779 7.40234 5.98779H12.3908V5.59717C12.3908 5.26488 12.5108 4.97863 12.7508 4.73842C12.991 4.49842 13.2772 4.37842 13.6095 4.37842H17.407C17.7393 4.37842 18.0256 4.49842 18.2658 4.73842C18.5058 4.97863 18.6258 5.26488 18.6258 5.59717V5.98779H23.6292C23.9615 5.98779 24.2478 6.10717 24.488 6.34592C24.728 6.58488 24.848 6.86956 24.848 7.19998C24.848 7.5304 24.728 7.81727 24.488 8.06061C24.2478 8.30373 23.9615 8.42529 23.6292 8.42529H23.2073V22.99C23.2073 23.6819 22.9703 24.2633 22.4961 24.7344C22.0219 25.2054 21.4465 25.4409 20.7698 25.4409H10.2617ZM13.6517 20.8825C13.9573 20.8825 14.2231 20.7711 14.4489 20.5484C14.6747 20.3259 14.7877 20.0609 14.7877 19.7534V11.6678C14.7877 11.3603 14.6769 11.0953 14.4555 10.8728C14.234 10.6501 13.9706 10.5387 13.6652 10.5387C13.3595 10.5387 13.0926 10.6501 12.8642 10.8728C12.6361 11.0953 12.522 11.3603 12.522 11.6678V19.7534C12.522 20.0609 12.6339 20.3259 12.8577 20.5484C13.0816 20.7711 13.3463 20.8825 13.6517 20.8825ZM17.3739 20.8825C17.6795 20.8825 17.9453 20.7711 18.1711 20.5484C18.3967 20.3259 18.5095 20.0609 18.5095 19.7534V11.6678C18.5095 11.3603 18.3989 11.0953 18.1777 10.8728C17.9562 10.6501 17.6927 10.5387 17.387 10.5387C17.0816 10.5387 16.8147 10.6501 16.5864 10.8728C16.3581 11.0953 16.2439 11.3603 16.2439 11.6678V19.7534C16.2439 20.0609 16.3559 20.3259 16.5798 20.5484C16.8038 20.7711 17.0685 20.8825 17.3739 20.8825Z" fill="white"/>
</g>
</g>
</svg>
