<svg width="16" height="16" viewBox="0 0 16 16" fill="none" xmlns="http://www.w3.org/2000/svg">
<g id="delete">
<mask id="mask0_2516_11138" style="mask-type:alpha" maskUnits="userSpaceOnUse" x="0" y="0" width="16" height="16">
<rect id="Bounding box" width="16" height="16" fill="#D9D9D9"/>
</mask>
<g mask="url(#mask0_2516_11138)">
<path id="delete_2" d="M4.66669 14C4.30002 14 3.98613 13.8694 3.72502 13.6083C3.46391 13.3472 3.33335 13.0333 3.33335 12.6667V4C3.14446 4 2.98613 3.93611 2.85835 3.80833C2.73058 3.68056 2.66669 3.52222 2.66669 3.33333C2.66669 3.14444 2.73058 2.98611 2.85835 2.85833C2.98613 2.73056 3.14446 2.66667 3.33335 2.66667H6.00002C6.00002 2.47778 6.06391 2.31944 6.19169 2.19167C6.31946 2.06389 6.4778 2 6.66669 2H9.33335C9.52224 2 9.68058 2.06389 9.80835 2.19167C9.93613 2.31944 10 2.47778 10 2.66667H12.6667C12.8556 2.66667 13.0139 2.73056 13.1417 2.85833C13.2695 2.98611 13.3334 3.14444 13.3334 3.33333C13.3334 3.52222 13.2695 3.68056 13.1417 3.80833C13.0139 3.93611 12.8556 4 12.6667 4V12.6667C12.6667 13.0333 12.5361 13.3472 12.275 13.6083C12.0139 13.8694 11.7 14 11.3334 14H4.66669ZM6.00002 10.6667C6.00002 10.8556 6.06391 11.0139 6.19169 11.1417C6.31946 11.2694 6.4778 11.3333 6.66669 11.3333C6.85558 11.3333 7.01391 11.2694 7.14169 11.1417C7.26946 11.0139 7.33335 10.8556 7.33335 10.6667V6C7.33335 5.81111 7.26946 5.65278 7.14169 5.525C7.01391 5.39722 6.85558 5.33333 6.66669 5.33333C6.4778 5.33333 6.31946 5.39722 6.19169 5.525C6.06391 5.65278 6.00002 5.81111 6.00002 6V10.6667ZM8.66669 10.6667C8.66669 10.8556 8.73058 11.0139 8.85835 11.1417C8.98613 11.2694 9.14446 11.3333 9.33335 11.3333C9.52224 11.3333 9.68058 11.2694 9.80835 11.1417C9.93613 11.0139 10 10.8556 10 10.6667V6C10 5.81111 9.93613 5.65278 9.80835 5.525C9.68058 5.39722 9.52224 5.33333 9.33335 5.33333C9.14446 5.33333 8.98613 5.39722 8.85835 5.525C8.73058 5.65278 8.66669 5.81111 8.66669 6V10.6667Z" fill="white"/>
</g>
</g>
</svg>
