<svg width="30" height="31" viewBox="0 0 30 31" xmlns="http://www.w3.org/2000/svg">
<g id="deployed_code">
<mask id="mask0_2530_4750" style="mask-type:alpha" maskUnits="userSpaceOnUse" x="0" y="0" width="30" height="31">
<rect id="Bounding box" y="0.5" width="30" height="30" fill="#D9D9D9"/>
</mask>
<g mask="url(#mask0_2530_4750)">
<path id="deployed_code_2" d="M13.75 27.6562L5 22.625C4.60417 22.3958 4.29688 22.0938 4.07813 21.7188C3.85938 21.3438 3.75 20.9271 3.75 20.4688V10.5312C3.75 10.0729 3.85938 9.65625 4.07813 9.28125C4.29688 8.90625 4.60417 8.60417 5 8.375L13.75 3.34375C14.1458 3.11458 14.5625 3 15 3C15.4375 3 15.8542 3.11458 16.25 3.34375L25 8.375C25.3958 8.60417 25.7031 8.90625 25.9219 9.28125C26.1406 9.65625 26.25 10.0729 26.25 10.5312V20.4688C26.25 20.9271 26.1406 21.3438 25.9219 21.7188C25.7031 22.0938 25.3958 22.3958 25 22.625L16.25 27.6562C15.8542 27.8854 15.4375 28 15 28C14.5625 28 14.1458 27.8854 13.75 27.6562ZM13.75 16.2188V24.7813L15 25.5L16.25 24.7813V16.2188L23.75 11.875V10.5625L22.4062 9.78125L15 14.0625L7.59375 9.78125L6.25 10.5625V11.875L13.75 16.2188Z" fill="#0E0E0E"/>
</g>
</g>
</svg>
