<svg width="25" height="26" viewBox="0 0 25 26" fill="none" xmlns="http://www.w3.org/2000/svg">
<g id="expand_content">
<mask id="mask0_2492_4729" style="mask-type:alpha" maskUnits="userSpaceOnUse" x="0" y="0" width="25" height="26">
<rect id="Bounding box" y="0.5" width="25" height="25" fill="#D9D9D9"/>
</mask>
<g mask="url(#mask0_2492_4729)">
<path id="expand_content_2" d="M7.29171 18.2083H10.4167C10.7118 18.2083 10.9592 18.3082 11.1589 18.5078C11.3585 18.7075 11.4584 18.9549 11.4584 19.25C11.4584 19.5451 11.3585 19.7925 11.1589 19.9922C10.9592 20.1919 10.7118 20.2917 10.4167 20.2917H6.25004C5.9549 20.2917 5.70751 20.1919 5.50785 19.9922C5.3082 19.7925 5.20837 19.5451 5.20837 19.25V15.0833C5.20837 14.7882 5.3082 14.5408 5.50785 14.3412C5.70751 14.1415 5.9549 14.0417 6.25004 14.0417C6.54518 14.0417 6.79258 14.1415 6.99223 14.3412C7.19188 14.5408 7.29171 14.7882 7.29171 15.0833V18.2083ZM17.7084 7.79168H14.5834C14.2882 7.79168 14.0408 7.69185 13.8412 7.4922C13.6415 7.29254 13.5417 7.04515 13.5417 6.75001C13.5417 6.45487 13.6415 6.20748 13.8412 6.00782C14.0408 5.80817 14.2882 5.70834 14.5834 5.70834H18.75C19.0452 5.70834 19.2926 5.80817 19.4922 6.00782C19.6919 6.20748 19.7917 6.45487 19.7917 6.75001V10.9167C19.7917 11.2118 19.6919 11.4592 19.4922 11.6589C19.2926 11.8585 19.0452 11.9583 18.75 11.9583C18.4549 11.9583 18.2075 11.8585 18.0079 11.6589C17.8082 11.4592 17.7084 11.2118 17.7084 10.9167V7.79168Z" fill="white"/>
</g>
</g>
</svg>
