<svg width="40" height="40" viewBox="0 0 40 40" fill="none" xmlns="http://www.w3.org/2000/svg">
<g id="explore">
<mask id="mask0_2516_247" style="mask-type:alpha" maskUnits="userSpaceOnUse" x="0" y="0" width="40" height="40">
<rect id="Bounding box" width="40" height="40" fill="#D9D9D9"/>
</mask>
<g mask="url(#mask0_2516_247)">
<path id="explore_2" d="M20.0022 21.9583C19.459 21.9861 18.9965 21.8028 18.6145 21.4084C18.2326 21.0141 18.0416 20.5453 18.0416 20.0022C18.0416 19.4591 18.2319 18.9965 18.6123 18.6146C18.9928 18.2326 19.4546 18.0417 19.9978 18.0417C20.5409 18.0417 21.0034 18.2319 21.3854 18.6124C21.7673 18.9929 21.9583 19.4547 21.9583 19.9978C21.9583 20.5409 21.7681 21.0035 21.3876 21.3854C21.0071 21.7674 20.5453 21.9583 20.0022 21.9583ZM20 35.5833C17.8637 35.5833 15.8489 35.1769 13.9556 34.364C12.0623 33.5512 10.4054 32.4331 8.98488 31.0099C7.56438 29.5866 6.44788 27.9293 5.63538 26.038C4.82288 24.1467 4.41663 22.134 4.41663 20C4.41663 17.8359 4.82306 15.8142 5.63592 13.9348C6.44878 12.0554 7.56683 10.4054 8.99008 8.98491C10.4133 7.56441 12.0706 6.44791 13.9619 5.63541C15.8533 4.82291 17.8659 4.41666 20 4.41666C22.164 4.41666 24.1858 4.82309 26.0652 5.63595C27.9446 6.44881 29.5945 7.56686 31.015 8.99012C32.4355 10.4134 33.552 12.0637 34.3645 13.9411C35.177 15.8186 35.5833 17.8382 35.5833 20C35.5833 22.1363 35.1769 24.1511 34.364 26.0444C33.5511 27.9377 32.4331 29.5946 31.0098 31.0151C29.5866 32.4356 27.9363 33.5521 26.0588 34.3646C24.1814 35.1771 22.1618 35.5833 20 35.5833ZM20 32.7917C23.5416 32.7917 26.559 31.5451 29.052 29.0521C31.5451 26.559 32.7916 23.5417 32.7916 20C32.7916 16.4583 31.5451 13.441 29.052 10.9479C26.559 8.45485 23.5416 7.20832 20 7.20832C16.4583 7.20832 13.4409 8.45485 10.9479 10.9479C8.45482 13.441 7.20829 16.4583 7.20829 20C7.20829 23.5417 8.45482 26.559 10.9479 29.0521C13.4409 31.5451 16.4583 32.7917 20 32.7917ZM20 32.7917C16.4583 32.7917 13.4409 31.5451 10.9479 29.0521C8.45482 26.559 7.20829 23.5417 7.20829 20C7.20829 16.4583 8.45482 13.441 10.9479 10.9479C13.4409 8.45485 16.4583 7.20832 20 7.20832C23.5416 7.20832 26.559 8.45485 29.052 10.9479C31.5451 13.441 32.7916 16.4583 32.7916 20C32.7916 23.5417 31.5451 26.559 29.052 29.0521C26.559 31.5451 23.5416 32.7917 20 32.7917ZM22.9583 23.5625C23.1111 23.5208 23.2465 23.441 23.3645 23.3229C23.4826 23.2049 23.5625 23.0694 23.6041 22.9167L27.7291 13.0625C27.8402 12.8125 27.7986 12.5903 27.6041 12.3958C27.4097 12.2014 27.1875 12.1597 26.9375 12.2708L17.0416 16.3958C16.8888 16.4375 16.7534 16.5174 16.6354 16.6354C16.5173 16.7535 16.4375 16.8889 16.3958 17.0417L12.3125 26.8958C12.2013 27.1458 12.243 27.368 12.4375 27.5625C12.6319 27.7569 12.8541 27.7986 13.1041 27.6875L22.9583 23.5625Z" fill="#2F2F2F"/>
</g>
</g>
</svg>
