<svg width="30" height="31" viewBox="0 0 30 31" fill="none" xmlns="http://www.w3.org/2000/svg">
<g id="filter_list">
<mask id="mask0_3062_3493" style="mask-type:alpha" maskUnits="userSpaceOnUse" x="0" y="0" width="30" height="31">
<rect id="Bounding box" y="0.5" width="30" height="30" fill="#D9D9D9"/>
</mask>
<g mask="url(#mask0_3062_3493)">
<path id="filter_list_2" d="M13.75 23C13.3958 23 13.099 22.8802 12.8594 22.6406C12.6198 22.401 12.5 22.1042 12.5 21.75C12.5 21.3958 12.6198 21.099 12.8594 20.8594C13.099 20.6198 13.3958 20.5 13.75 20.5H16.25C16.6042 20.5 16.901 20.6198 17.1406 20.8594C17.3802 21.099 17.5 21.3958 17.5 21.75C17.5 22.1042 17.3802 22.401 17.1406 22.6406C16.901 22.8802 16.6042 23 16.25 23H13.75ZM5 10.5C4.64583 10.5 4.34896 10.3802 4.10938 10.1406C3.86979 9.90104 3.75 9.60417 3.75 9.25C3.75 8.89583 3.86979 8.59896 4.10938 8.35938C4.34896 8.11979 4.64583 8 5 8H25C25.3542 8 25.651 8.11979 25.8906 8.35938C26.1302 8.59896 26.25 8.89583 26.25 9.25C26.25 9.60417 26.1302 9.90104 25.8906 10.1406C25.651 10.3802 25.3542 10.5 25 10.5H5ZM8.75 16.75C8.39583 16.75 8.09896 16.6302 7.85938 16.3906C7.61979 16.151 7.5 15.8542 7.5 15.5C7.5 15.1458 7.61979 14.849 7.85938 14.6094C8.09896 14.3698 8.39583 14.25 8.75 14.25H21.25C21.6042 14.25 21.901 14.3698 22.1406 14.6094C22.3802 14.849 22.5 15.1458 22.5 15.5C22.5 15.8542 22.3802 16.151 22.1406 16.3906C21.901 16.6302 21.6042 16.75 21.25 16.75H8.75Z" fill="white"/>
</g>
</g>
</svg>
