<svg width="30" height="31" viewBox="0 0 30 31" fill="none" xmlns="http://www.w3.org/2000/svg">
<g id="globe_asia">
<mask id="mask0_2530_4755" style="mask-type:alpha" maskUnits="userSpaceOnUse" x="0" y="0" width="30" height="31">
<rect id="Bounding box" y="0.5" width="30" height="30" fill="#D9D9D9"/>
</mask>
<g mask="url(#mask0_2530_4755)">
<path id="globe_asia_2" d="M14.75 25.5312C14.0625 25.5312 13.474 25.2813 12.9844 24.7813C12.4948 24.2813 12.25 23.6875 12.25 23C12.25 22.3125 12.4948 21.724 12.9844 21.2344C13.474 20.7448 14.0625 20.5 14.75 20.5L15.5 19.7812C15.6667 19.6146 15.8594 19.4844 16.0781 19.3906C16.2969 19.2969 16.5208 19.25 16.75 19.25C17.2292 19.25 17.6406 19.4271 17.9844 19.7812C18.3281 20.1354 18.5 20.5521 18.5 21.0312V21.5625C18.5 21.9792 18.6354 22.3229 18.9062 22.5938C19.1771 22.8646 19.5208 23 19.9375 23C20.25 23 20.5312 22.9062 20.7812 22.7188C21.0312 22.5312 21.2083 22.2917 21.3125 22L21.6875 20.9688C21.875 20.4688 22.1771 20.0573 22.5938 19.7344C23.0104 19.4115 23.4896 19.25 24.0313 19.25C24.2604 18.6667 24.4427 18.0625 24.5781 17.4375C24.7135 16.8125 24.7812 16.1667 24.7812 15.5C24.7812 13.6458 24.3177 11.9531 23.3906 10.4219C22.4635 8.89062 21.25 7.6875 19.75 6.8125V8C19.75 8.6875 19.5052 9.27604 19.0156 9.76562C18.526 10.2552 17.9375 10.5 17.25 10.5H16V13C16 13.3542 15.8802 13.651 15.6406 13.8906C15.401 14.1302 15.1042 14.25 14.75 14.25H13.5V16.375C13.5 16.8333 13.3438 17.2188 13.0312 17.5312C12.7188 17.8438 12.3333 18 11.875 18C11.5833 18 11.3177 17.9375 11.0781 17.8125C10.8385 17.6875 10.6458 17.5104 10.5 17.2812L8.5 14.25H7.25V15.5C7.25 16.1458 7.03125 16.6979 6.59375 17.1562C6.15625 17.6146 5.63542 17.8854 5.03125 17.9688C5.57292 20.1354 6.74479 21.9375 8.54688 23.375C10.349 24.8125 12.4167 25.5312 14.75 25.5312ZM17.25 18C16.8958 18 16.599 17.8802 16.3594 17.6406C16.1198 17.401 16 17.1042 16 16.75C16 16.3958 16.1198 16.099 16.3594 15.8594C16.599 15.6198 16.8958 15.5 17.25 15.5H18.5C18.8542 15.5 19.151 15.6198 19.3906 15.8594C19.6302 16.099 19.75 16.3958 19.75 16.75C19.75 17.1042 19.6302 17.401 19.3906 17.6406C19.151 17.8802 18.8542 18 18.5 18H17.25ZM20.1562 14.25C19.7396 14.25 19.4115 14.0885 19.1719 13.7656C18.9323 13.4427 18.875 13.0833 19 12.6875L19.4688 11.3125C19.5521 11.0625 19.6979 10.8646 19.9062 10.7188C20.1146 10.5729 20.3438 10.5 20.5938 10.5C21.0104 10.5 21.3385 10.6615 21.5781 10.9844C21.8177 11.3073 21.875 11.6667 21.75 12.0625L21.2812 13.4375C21.1979 13.6875 21.0521 13.8854 20.8438 14.0312C20.6354 14.1771 20.4062 14.25 20.1562 14.25ZM14.75 28C13.0208 28 11.3958 27.6719 9.875 27.0156C8.35417 26.3594 7.03125 25.4688 5.90625 24.3438C4.78125 23.2188 3.89063 21.8958 3.23438 20.375C2.57812 18.8542 2.25 17.2292 2.25 15.5C2.25 13.7708 2.57812 12.1458 3.23438 10.625C3.89063 9.10417 4.78125 7.78125 5.90625 6.65625C7.03125 5.53125 8.35417 4.64063 9.875 3.98438C11.3958 3.32812 13.0208 3 14.75 3C16.4792 3 18.1042 3.32812 19.625 3.98438C21.1458 4.64063 22.4688 5.53125 23.5938 6.65625C24.7188 7.78125 25.6094 9.10417 26.2656 10.625C26.9219 12.1458 27.25 13.7708 27.25 15.5C27.25 17.2292 26.9219 18.8542 26.2656 20.375C25.6094 21.8958 24.7188 23.2188 23.5938 24.3438C22.4688 25.4688 21.1458 26.3594 19.625 27.0156C18.1042 27.6719 16.4792 28 14.75 28Z" fill="white"/>
</g>
</g>
</svg>
