<svg width="35" height="36" viewBox="0 0 35 36" fill="none" xmlns="http://www.w3.org/2000/svg">
<g id="hallway">
<mask id="mask0_2549_6222" style="mask-type:alpha" maskUnits="userSpaceOnUse" x="0" y="0" width="35" height="36">
<rect id="Bounding box" y="0.5" width="35" height="35" fill="#D9D9D9"/>
</mask>
<g mask="url(#mask0_2549_6222)">
<path id="hallway_2" d="M7.29167 32.5833C6.48958 32.5833 5.80295 32.2977 5.23177 31.7265C4.66059 31.1554 4.375 30.4687 4.375 29.6666V9.24998C4.375 8.4479 4.66059 7.76126 5.23177 7.19008C5.80295 6.6189 6.48958 6.33331 7.29167 6.33331H11.6667L16.4792 1.52081C16.7708 1.22915 17.1111 1.08331 17.5 1.08331C17.8889 1.08331 18.2292 1.22915 18.5208 1.52081L23.3333 6.33331H27.7083C28.5104 6.33331 29.1971 6.6189 29.7682 7.19008C30.3394 7.76126 30.625 8.4479 30.625 9.24998V29.6666C30.625 30.4687 30.3394 31.1554 29.7682 31.7265C29.1971 32.2977 28.5104 32.5833 27.7083 32.5833H7.29167ZM16.4062 25.2916L13.7083 21.6823C13.5625 21.4878 13.3681 21.3906 13.125 21.3906C12.8819 21.3906 12.6875 21.4878 12.5417 21.6823L9.625 25.5833C9.43056 25.8264 9.40625 26.0816 9.55208 26.3489C9.69792 26.6163 9.91667 26.75 10.2083 26.75H24.7917C25.0833 26.75 25.3021 26.6163 25.4479 26.3489C25.5938 26.0816 25.5694 25.8264 25.375 25.5833L21.3646 20.2239C21.2188 20.0295 21.0243 19.9323 20.7812 19.9323C20.5382 19.9323 20.3438 20.0295 20.1979 20.2239L16.4062 25.2916ZM14.7292 6.33331H20.2708L17.5 3.56248L14.7292 6.33331Z" fill="white"/>
</g>
</g>
</svg>
