<svg width="40" height="40" viewBox="0 0 40 40" fill="none" xmlns="http://www.w3.org/2000/svg">
<g id="home">
<mask id="mask0_2495_7402" style="mask-type:alpha" maskUnits="userSpaceOnUse" x="0" y="0" width="40" height="40">
<rect id="Bounding box" width="40" height="40" fill="#D9D9D9"/>
</mask>
<g mask="url(#mask0_2495_7402)">
<path id="home_2" d="M10.3333 34.625C9.42635 34.625 8.651 34.3031 8.00725 33.6594C7.3635 33.0156 7.04163 32.2403 7.04163 31.3333V16.7917C7.04163 16.2669 7.15664 15.7747 7.38667 15.3151C7.6167 14.8555 7.94613 14.4727 8.37496 14.1667L18.0489 6.91133C18.3218 6.70656 18.628 6.54514 18.9675 6.42708C19.3069 6.30903 19.6541 6.25 20.0091 6.25C20.3641 6.25 20.7083 6.30903 21.0416 6.42708C21.375 6.54514 21.6781 6.70656 21.951 6.91133L31.625 14.1667C32.0538 14.4727 32.3832 14.8555 32.6133 15.3151C32.8433 15.7747 32.9583 16.2669 32.9583 16.7917V31.3333C32.9583 32.2403 32.6364 33.0156 31.9927 33.6594C31.3489 34.3031 30.5736 34.625 29.6666 34.625H23.5208V23.0417H16.4791V34.625H10.3333Z" fill="#2F2F2F"/>
</g>
</g>
</svg>
