<svg width="220" height="220" viewBox="0 0 220 220" fill="none" xmlns="http://www.w3.org/2000/svg">
<g id="Vector" style="mix-blend-mode:color-dodge" opacity="0.5">
<path d="M24.2667 183.333C10.8646 183.333 0 172.469 0 159.067V24.4444C0 10.9441 10.9442 0 24.4444 0H77.6C90.5778 0 101.778 2.37069 111.2 7.11207C122.044 12.5559 130.667 20.3704 137.067 30.5556C143.467 40.5651 146.667 51.6284 146.667 63.7452C146.667 75.8621 143.467 87.0131 137.067 97.1983C130.844 107.383 122.311 115.198 111.467 120.642C102.222 125.383 90.9333 127.754 77.6 127.754H72.9778C59.4775 127.754 48.5333 138.698 48.5333 152.198V159.067C48.5333 172.469 37.6688 183.333 24.2667 183.333Z" fill="url(#paint0_linear_2492_4773)"/>
<path d="M83.4014 214.966C83.4014 217.746 81.1476 220 78.3673 220C75.5871 220 73.3333 217.746 73.3333 214.966V61.1111C73.3333 47.6108 84.2775 36.6667 97.7778 36.6667H149.524C162.222 36.6667 173.923 39.3008 184.626 44.569C195.51 49.8372 204.127 57.3004 210.476 66.9588C216.825 76.6172 220 87.7682 220 100.412C220 112.529 216.735 123.68 210.204 133.865C203.855 144.05 195.147 151.865 184.082 157.308C174.467 162.05 162.948 164.421 149.524 164.421H107.846C94.3455 164.421 83.4014 175.365 83.4014 188.865V214.966ZM83.4014 130.23C83.4014 143.73 94.3455 154.674 107.846 154.674H149.524C161.134 154.674 170.658 152.918 178.095 149.406C187.71 145.016 195.419 138.431 201.224 129.65C207.029 120.87 209.932 111.124 209.932 100.412C209.932 89.8755 207.029 80.2171 201.224 71.4368C195.419 62.6565 187.619 56.0712 177.823 51.681C170.385 48.1689 160.952 46.4128 149.524 46.4128H107.846C94.3455 46.4128 83.4014 57.357 83.4014 70.8573V130.23Z" fill="url(#paint1_linear_2492_4773)"/>
</g>
<defs>
<linearGradient id="paint0_linear_2492_4773" x1="0" y1="0" x2="220" y2="220" gradientUnits="userSpaceOnUse">
<stop stop-color="#CDE347"/>
<stop offset="1" stop-color="#0E0E0E"/>
</linearGradient>
<linearGradient id="paint1_linear_2492_4773" x1="0" y1="0" x2="220" y2="220" gradientUnits="userSpaceOnUse">
<stop stop-color="#CDE347"/>
<stop offset="1" stop-color="#0E0E0E"/>
</linearGradient>
</defs>
</svg>
