<svg width="30" height="31" viewBox="0 0 30 31" fill="none" xmlns="http://www.w3.org/2000/svg">
<g id="keyboard_arrow_left">
<mask id="mask0_2516_11719" style="mask-type:alpha" maskUnits="userSpaceOnUse" x="0" y="0" width="30" height="31">
<rect id="Bounding box" y="0.5" width="30" height="30" fill="#D9D9D9"/>
</mask>
<g mask="url(#mask0_2516_11719)">
<path id="keyboard_arrow_left_2" d="M13.5 15.5001L18.375 20.3751C18.6042 20.6042 18.7188 20.8959 18.7188 21.2501C18.7188 21.6042 18.6042 21.8959 18.375 22.1251C18.1458 22.3542 17.8542 22.4688 17.5 22.4688C17.1458 22.4688 16.8542 22.3542 16.625 22.1251L10.875 16.3751C10.75 16.2501 10.6615 16.1146 10.6094 15.9688C10.5573 15.823 10.5312 15.6667 10.5312 15.5001C10.5312 15.3334 10.5573 15.1771 10.6094 15.0313C10.6615 14.8855 10.75 14.7501 10.875 14.6251L16.625 8.87506C16.8542 8.64589 17.1458 8.53131 17.5 8.53131C17.8542 8.53131 18.1458 8.64589 18.375 8.87506C18.6042 9.10423 18.7188 9.39589 18.7188 9.75006C18.7188 10.1042 18.6042 10.3959 18.375 10.6251L13.5 15.5001Z" fill="#2F2F2F"/>
</g>
</g>
</svg>
