<svg width="30" height="31" viewBox="0 0 30 31" fill="none" xmlns="http://www.w3.org/2000/svg">
<g id="keyboard_arrow_right">
<mask id="mask0_2516_11726" style="mask-type:alpha" maskUnits="userSpaceOnUse" x="0" y="0" width="30" height="31">
<rect id="Bounding box" y="0.5" width="30" height="30" fill="#D9D9D9"/>
</mask>
<g mask="url(#mask0_2516_11726)">
<path id="keyboard_arrow_right_2" d="M15.75 15.5001L10.875 10.6251C10.6458 10.3959 10.5312 10.1042 10.5312 9.75006C10.5312 9.39589 10.6458 9.10423 10.875 8.87506C11.1042 8.64589 11.3958 8.53131 11.75 8.53131C12.1042 8.53131 12.3958 8.64589 12.625 8.87506L18.375 14.6251C18.5 14.7501 18.5885 14.8855 18.6406 15.0313C18.6927 15.1771 18.7188 15.3334 18.7188 15.5001C18.7188 15.6667 18.6927 15.823 18.6406 15.9688C18.5885 16.1146 18.5 16.2501 18.375 16.3751L12.625 22.1251C12.3958 22.3542 12.1042 22.4688 11.75 22.4688C11.3958 22.4688 11.1042 22.3542 10.875 22.1251C10.6458 21.8959 10.5312 21.6042 10.5312 21.2501C10.5312 20.8959 10.6458 20.6042 10.875 20.3751L15.75 15.5001Z" fill="#2F2F2F"/>
</g>
</g>
</svg>
