<svg width="31" height="31" viewBox="0 0 31 31" fill="none" xmlns="http://www.w3.org/2000/svg">
<g id="&#229;&#156;&#150;&#231;&#164;&#186;">
<mask id="mask0_3548_4923" style="mask-type:alpha" maskUnits="userSpaceOnUse" x="0" y="0" width="31" height="31">
<rect id="Bounding box" x="0.5" y="0.5" width="30" height="30" fill="#D9D9D9"/>
</mask>
<g mask="url(#mask0_3548_4923)">
<path id="bolt" d="M12.5655 18.2806H9.12792C8.68436 18.2806 8.35631 18.0819 8.14378 17.6846C7.93124 17.2872 7.95434 16.9037 8.21308 16.5341L16.502 4.61351C16.6869 4.35477 16.9271 4.17457 17.2228 4.07292C17.5185 3.97127 17.8235 3.97589 18.1377 4.08678C18.4518 4.19767 18.6829 4.39173 18.8307 4.66895C18.9786 4.94617 19.034 5.24188 18.9971 5.55606L18.1099 12.7361H22.4069C22.8874 12.7361 23.2247 12.9487 23.4188 13.3738C23.6128 13.7988 23.5528 14.1962 23.2386 14.5658L14.1179 25.4884C13.9146 25.7287 13.6651 25.8857 13.3694 25.9597C13.0737 26.0336 12.7873 26.0059 12.51 25.8765C12.2328 25.7471 12.0157 25.5485 11.8586 25.2805C11.7015 25.0125 11.6414 24.7214 11.6784 24.4072L12.5655 18.2806Z" fill="#191919"/>
</g>
</g>
</svg>
