<svg width="16" height="17" viewBox="0 0 16 17" fill="none" xmlns="http://www.w3.org/2000/svg">
<g id="Vector">
<path d="M7.21863 0.530199C5.97463 0.648973 4.74626 1.07718 3.67105 1.77107C2.8365 2.30868 1.88006 3.25262 1.32057 4.09029C0.689198 5.03735 0.251611 6.17821 0.0703242 7.34094C-0.00781642 7.84416 -0.00781642 9.1413 0.0703242 9.6539C0.27349 10.9885 0.79547 12.2357 1.58938 13.2953C1.88944 13.6922 2.54582 14.3673 2.95215 14.6955C4.04612 15.577 5.34638 16.1646 6.76542 16.4209C7.07485 16.4771 8.59703 16.524 8.85333 16.4865C8.98461 16.4678 9.00024 16.4553 9.00024 16.3834C9.00024 16.2865 8.53452 14.4955 8.50014 14.458C8.48764 14.4424 8.22508 14.4174 7.91877 14.4017C7.00922 14.3517 6.46848 14.2517 5.84961 14.0173C5.3245 13.8172 4.86504 13.5578 4.33368 13.1577C4.03674 12.9358 3.53039 12.4295 3.53039 12.3576C3.53039 12.2826 4.9463 11.4324 5.68082 11.0636L5.94025 10.9323L6.14967 11.1292C6.26532 11.2386 6.56538 11.5262 6.81855 11.7731C7.07485 12.0169 7.30615 12.2169 7.33428 12.2169C7.36554 12.2169 7.98754 12.0919 8.71581 11.9387L10.0379 11.6637L12.0321 9.66953L11.9352 9.31008C11.7289 8.5318 11.7289 8.52868 11.6195 8.52868C11.4976 8.52868 10.3786 8.81311 10.0129 8.93501C9.73789 9.02878 9.72851 9.03503 9.38782 9.37572L9.04087 9.72267L8.66892 9.7633C8.46263 9.78518 8.18445 9.81331 8.04692 9.82269L7.79687 9.84144L7.46243 9.51012C7.04985 9.10379 6.91857 8.86624 6.80292 8.31926L6.72791 7.97231L7.0436 7.55348C7.41867 7.05963 7.53432 6.97211 7.92502 6.87522C8.42512 6.75332 8.50952 6.69393 9.24716 5.97504L9.91292 5.32491L9.44095 4.85919L8.97211 4.39035L7.75937 4.72479C7.09361 4.90608 6.50286 5.06861 6.4466 5.08111C6.36846 5.09986 6.23093 5.23427 5.85586 5.6531C5.4214 6.13757 4.54622 7.14715 4.4462 7.27843C4.41495 7.31906 4.44308 7.45659 4.5806 7.95044C4.67437 8.29425 4.76502 8.69121 4.78689 8.83499C4.8244 9.09129 4.8244 9.09129 4.74939 9.14755C4.62749 9.23194 4.21178 9.48199 3.63979 9.81018C2.76774 10.3103 2.53332 10.4353 2.47081 10.4353C2.42705 10.4353 2.39266 10.3916 2.34891 10.2697C2.177 9.80706 2.12386 9.3976 2.12074 8.55993C2.12074 7.89105 2.15824 7.4222 2.23638 7.10652C2.65522 5.4218 3.77419 4.00277 5.29637 3.23699C6.03089 2.86817 6.61851 2.70251 7.53432 2.60561C7.77812 2.58061 7.98441 2.5556 7.98754 2.54935C8.02504 2.51185 8.32198 0.567706 8.29697 0.523947C8.27509 0.489566 7.59683 0.492691 7.21863 0.530199Z" fill="#1BD96A"/>
<path d="M10.4912 0.995916C10.4318 1.0428 10.3974 1.11782 10.363 1.27097C10.3255 1.44288 10.063 2.84941 10.063 2.89005C10.063 2.8963 10.263 2.99944 10.5099 3.11822C11.2538 3.47766 11.8196 3.89337 12.3759 4.49037C13.1542 5.32491 13.6887 6.39075 13.8637 7.46596C13.92 7.80353 13.9294 9.21944 13.8762 9.49449C13.7231 10.2978 13.398 11.0886 12.926 11.7918C12.6416 12.2169 12.0852 12.817 11.6726 13.139C11.4695 13.2984 10.8662 13.7047 10.6099 13.8579C10.5568 13.8891 10.5724 13.961 10.7943 14.8612C10.9256 15.3926 11.0475 15.8458 11.06 15.8708C11.0788 15.902 11.1663 15.8708 11.4414 15.7395C12.2946 15.3238 12.976 14.8393 13.6605 14.1579C14.3388 13.4765 14.7639 12.8795 15.189 12.0137C15.5547 11.2699 15.786 10.5416 15.9298 9.69453C16.0079 9.21944 16.0079 7.82541 15.9298 7.32531C15.7985 6.49389 15.5578 5.72812 15.189 4.98109C14.4076 3.3964 13.1886 2.17115 11.5851 1.35849C11.1663 1.14595 10.6724 0.933404 10.6006 0.933404C10.5849 0.933404 10.5349 0.961535 10.4912 0.995916Z" fill="#1BD96A"/>
</g>
</svg>
