<svg width="26" height="26" viewBox="0 0 26 26" fill="none" xmlns="http://www.w3.org/2000/svg">
<g id="more_horiz">
<mask id="mask0_2516_11383" style="mask-type:alpha" maskUnits="userSpaceOnUse" x="0" y="0" width="26" height="26">
<rect id="Bounding box" x="0.5" y="0.5" width="25" height="25" fill="#D9D9D9"/>
</mask>
<g mask="url(#mask0_2516_11383)">
<path id="more_horiz_2" d="M6.74996 15.0832C6.17704 15.0832 5.68659 14.8792 5.27861 14.4712C4.87062 14.0632 4.66663 13.5728 4.66663 12.9998C4.66663 12.4269 4.87062 11.9365 5.27861 11.5285C5.68659 11.1205 6.17704 10.9165 6.74996 10.9165C7.32288 10.9165 7.81333 11.1205 8.22131 11.5285C8.6293 11.9365 8.83329 12.4269 8.83329 12.9998C8.83329 13.5728 8.6293 14.0632 8.22131 14.4712C7.81333 14.8792 7.32288 15.0832 6.74996 15.0832ZM13 15.0832C12.427 15.0832 11.9366 14.8792 11.5286 14.4712C11.1206 14.0632 10.9166 13.5728 10.9166 12.9998C10.9166 12.4269 11.1206 11.9365 11.5286 11.5285C11.9366 11.1205 12.427 10.9165 13 10.9165C13.5729 10.9165 14.0633 11.1205 14.4713 11.5285C14.8793 11.9365 15.0833 12.4269 15.0833 12.9998C15.0833 13.5728 14.8793 14.0632 14.4713 14.4712C14.0633 14.8792 13.5729 15.0832 13 15.0832ZM19.25 15.0832C18.677 15.0832 18.1866 14.8792 17.7786 14.4712C17.3706 14.0632 17.1666 13.5728 17.1666 12.9998C17.1666 12.4269 17.3706 11.9365 17.7786 11.5285C18.1866 11.1205 18.677 10.9165 19.25 10.9165C19.8229 10.9165 20.3133 11.1205 20.7213 11.5285C21.1293 11.9365 21.3333 12.4269 21.3333 12.9998C21.3333 13.5728 21.1293 14.0632 20.7213 14.4712C20.3133 14.8792 19.8229 15.0832 19.25 15.0832Z" fill="white"/>
</g>
</g>
</svg>
