<svg width="30" height="31" viewBox="0 0 30 31" fill="none" xmlns="http://www.w3.org/2000/svg">
<g id="motion_mode">
<mask id="mask0_2530_4765" style="mask-type:alpha" maskUnits="userSpaceOnUse" x="0" y="0" width="30" height="31">
<rect id="Bounding box" y="0.5" width="30" height="30" fill="#D9D9D9"/>
</mask>
<g mask="url(#mask0_2530_4765)">
<path id="motion_mode_2" d="M6.24976 6.5625V24.4375C5.89559 24.0833 5.56226 23.7083 5.24976 23.3125C4.93726 22.9167 4.64559 22.5104 4.37476 22.0938V8.90625C4.64559 8.48958 4.93726 8.08333 5.24976 7.6875C5.56226 7.29167 5.89559 6.91667 6.24976 6.5625ZM11.2498 3.5625V27.4375C10.8123 27.2917 10.3852 27.1302 9.96851 26.9531C9.55184 26.776 9.14559 26.5729 8.74976 26.3438V4.65625C9.14559 4.42708 9.55184 4.22396 9.96851 4.04688C10.3852 3.86979 10.8123 3.70833 11.2498 3.5625ZM19.9998 26.9688V4.03125C22.2081 5.01042 24.0102 6.52083 25.406 8.5625C26.8018 10.6042 27.4998 12.9167 27.4998 15.5C27.4998 18.0833 26.8018 20.3958 25.406 22.4375C24.0102 24.4792 22.2081 25.9896 19.9998 26.9688ZM14.9998 28C14.7914 28 14.5831 27.9948 14.3748 27.9844C14.1664 27.974 13.9581 27.9583 13.7498 27.9375V3.0625C13.9581 3.04167 14.1664 3.02604 14.3748 3.01562C14.5831 3.00521 14.7914 3 14.9998 3C15.4164 3 15.8331 3.02083 16.2498 3.0625C16.6664 3.10417 17.0831 3.16667 17.4998 3.25V27.75C17.0831 27.8333 16.6664 27.8958 16.2498 27.9375C15.8331 27.9792 15.4164 28 14.9998 28Z" fill="white"/>
</g>
</g>
</svg>
