<svg width="35" height="36" viewBox="0 0 35 36" fill="none" xmlns="http://www.w3.org/2000/svg">
<g id="photo_library">
<mask id="mask0_2549_6238" style="mask-type:alpha" maskUnits="userSpaceOnUse" x="0" y="0" width="35" height="36">
<rect id="Bounding box" y="0.5" width="35" height="35" fill="#D9D9D9"/>
</mask>
<g mask="url(#mask0_2549_6238)">
<path id="photo_library_2" d="M13.1251 20.9167H27.7084L22.6772 14.3542L19.323 18.7292L17.0626 15.8125L13.1251 20.9167ZM11.6667 26.75C10.8647 26.75 10.178 26.4644 9.60685 25.8932C9.03567 25.3221 8.75008 24.6354 8.75008 23.8334V6.33335C8.75008 5.53127 9.03567 4.84464 9.60685 4.27346C10.178 3.70228 10.8647 3.41669 11.6667 3.41669H29.1667C29.9688 3.41669 30.6555 3.70228 31.2266 4.27346C31.7978 4.84464 32.0834 5.53127 32.0834 6.33335V23.8334C32.0834 24.6354 31.7978 25.3221 31.2266 25.8932C30.6555 26.4644 29.9688 26.75 29.1667 26.75H11.6667ZM11.6667 23.8334H29.1667V6.33335H11.6667V23.8334ZM5.83341 32.5834C5.03133 32.5834 4.3447 32.2978 3.77352 31.7266C3.20234 31.1554 2.91675 30.4688 2.91675 29.6667V9.25002H5.83341V29.6667H26.2501V32.5834H5.83341ZM11.6667 6.33335H29.1667V23.8334H11.6667V6.33335Z" fill="white"/>
</g>
</g>
</svg>
