<svg width="40" height="40" viewBox="0 0 40 40" fill="none" xmlns="http://www.w3.org/2000/svg">
<g id="sim_card_download">
<mask id="mask0_2809_1271" style="mask-type:alpha" maskUnits="userSpaceOnUse" x="0" y="0" width="40" height="40">
<rect id="Bounding box" width="40" height="40" fill="#D9D9D9"/>
</mask>
<g mask="url(#mask0_2809_1271)">
<path id="sim_card_download_2" d="M21.4167 22.2083V17.3602C21.4167 16.9751 21.2807 16.6452 21.0088 16.3705C20.7368 16.0957 20.4105 15.9583 20.0296 15.9583C19.6488 15.9583 19.3194 16.0957 19.0417 16.3705C18.7639 16.6452 18.625 16.9751 18.625 17.3602V22.2083L17.1667 20.75C16.875 20.4583 16.5556 20.3159 16.2083 20.3229C15.8611 20.3298 15.5417 20.4722 15.25 20.75C14.9444 21.0416 14.7882 21.368 14.7812 21.7291C14.7743 22.0902 14.9236 22.4236 15.2292 22.7291L19.0309 26.5682C19.3158 26.856 19.6414 27 20.0076 27C20.3738 27 20.6976 26.8541 20.9792 26.5625L24.8125 22.7291C25.1181 22.4236 25.2639 22.0868 25.25 21.7187C25.2361 21.3507 25.0833 21.0277 24.7917 20.75C24.4861 20.4583 24.1528 20.3159 23.7917 20.3229C23.4306 20.3298 23.1111 20.4791 22.8333 20.7708L21.4167 22.2083ZM11.1549 35.5833C10.385 35.5833 9.72917 35.3104 9.1875 34.7645C8.64583 34.2187 8.375 33.5611 8.375 32.7916V13.3333C8.375 12.966 8.44097 12.6138 8.57292 12.2766C8.70486 11.9394 8.91667 11.625 9.20833 11.3333L15.2917 5.24996C15.5833 4.95829 15.8978 4.74649 16.235 4.61454C16.5722 4.4826 16.9244 4.41663 17.2917 4.41663H28.8333C29.6028 4.41663 30.2604 4.68954 30.8062 5.23538C31.3521 5.78121 31.625 6.43885 31.625 7.20829V32.7916C31.625 33.5611 31.3519 34.2187 30.8058 34.7645C30.2596 35.3104 29.6016 35.5833 28.8317 35.5833H11.1549Z" fill="#2F2F2F"/>
</g>
</g>
</svg>
