<svg width="31" height="30" viewBox="0 0 31 30" fill="none" xmlns="http://www.w3.org/2000/svg">
<g id="stadia_controller">
<mask id="mask0_2516_11376" style="mask-type:alpha" maskUnits="userSpaceOnUse" x="0" y="0" width="31" height="30">
<rect id="Bounding box" x="0.5" width="30" height="30" fill="#D9D9D9"/>
</mask>
<g mask="url(#mask0_2516_11376)">
<path id="stadia_controller_2" d="M6.40625 25C5.15625 25 4.08854 24.5521 3.20313 23.6562C2.31771 22.7604 1.85417 21.6771 1.8125 20.4062C1.8125 20.2188 1.82292 20.0312 1.84375 19.8438C1.86458 19.6562 1.89583 19.4688 1.9375 19.2812L4.5625 8.78125C4.85417 7.65625 5.44792 6.74479 6.34375 6.04688C7.23958 5.34896 8.26042 5 9.40625 5H21.5938C22.7396 5 23.7604 5.34896 24.6563 6.04688C25.5521 6.74479 26.1458 7.65625 26.4375 8.78125L29.0625 19.2812C29.1042 19.4688 29.1406 19.6615 29.1719 19.8594C29.2031 20.0573 29.2188 20.25 29.2188 20.4375C29.2188 21.7083 28.7656 22.7865 27.8594 23.6719C26.9531 24.5573 25.8646 25 24.5938 25C23.7188 25 22.9063 24.7708 22.1563 24.3125C21.4063 23.8542 20.8438 23.2292 20.4688 22.4375L19.5938 20.625C19.4896 20.4167 19.3333 20.2604 19.125 20.1562C18.9167 20.0521 18.6979 20 18.4688 20H12.5313C12.3021 20 12.0833 20.0521 11.875 20.1562C11.6667 20.2604 11.5104 20.4167 11.4063 20.625L10.5313 22.4375C10.1563 23.2292 9.59375 23.8542 8.84375 24.3125C8.09375 24.7708 7.28125 25 6.40625 25ZM17.375 13.75C17.7292 13.75 18.026 13.6302 18.2656 13.3906C18.5052 13.151 18.625 12.8542 18.625 12.5C18.625 12.1458 18.5052 11.849 18.2656 11.6094C18.026 11.3698 17.7292 11.25 17.375 11.25C17.0208 11.25 16.724 11.3698 16.4844 11.6094C16.2448 11.849 16.125 12.1458 16.125 12.5C16.125 12.8542 16.2448 13.151 16.4844 13.3906C16.724 13.6302 17.0208 13.75 17.375 13.75ZM19.875 11.25C20.2292 11.25 20.526 11.1302 20.7656 10.8906C21.0052 10.651 21.125 10.3542 21.125 10C21.125 9.64583 21.0052 9.34896 20.7656 9.10938C20.526 8.86979 20.2292 8.75 19.875 8.75C19.5208 8.75 19.224 8.86979 18.9844 9.10938C18.7448 9.34896 18.625 9.64583 18.625 10C18.625 10.3542 18.7448 10.651 18.9844 10.8906C19.224 11.1302 19.5208 11.25 19.875 11.25ZM19.875 16.25C20.2292 16.25 20.526 16.1302 20.7656 15.8906C21.0052 15.651 21.125 15.3542 21.125 15C21.125 14.6458 21.0052 14.349 20.7656 14.1094C20.526 13.8698 20.2292 13.75 19.875 13.75C19.5208 13.75 19.224 13.8698 18.9844 14.1094C18.7448 14.349 18.625 14.6458 18.625 15C18.625 15.3542 18.7448 15.651 18.9844 15.8906C19.224 16.1302 19.5208 16.25 19.875 16.25ZM22.375 13.75C22.7292 13.75 23.026 13.6302 23.2656 13.3906C23.5052 13.151 23.625 12.8542 23.625 12.5C23.625 12.1458 23.5052 11.849 23.2656 11.6094C23.026 11.3698 22.7292 11.25 22.375 11.25C22.0208 11.25 21.724 11.3698 21.4844 11.6094C21.2448 11.849 21.125 12.1458 21.125 12.5C21.125 12.8542 21.2448 13.151 21.4844 13.3906C21.724 13.6302 22.0208 13.75 22.375 13.75ZM11.125 15.625C11.3958 15.625 11.6198 15.5365 11.7969 15.3594C11.974 15.1823 12.0625 14.9583 12.0625 14.6875V13.4375H13.3125C13.5833 13.4375 13.8073 13.349 13.9844 13.1719C14.1615 12.9948 14.25 12.7708 14.25 12.5C14.25 12.2292 14.1615 12.0052 13.9844 11.8281C13.8073 11.651 13.5833 11.5625 13.3125 11.5625H12.0625V10.3125C12.0625 10.0417 11.974 9.81771 11.7969 9.64062C11.6198 9.46354 11.3958 9.375 11.125 9.375C10.8542 9.375 10.6302 9.46354 10.4531 9.64062C10.276 9.81771 10.1875 10.0417 10.1875 10.3125V11.5625H8.9375C8.66667 11.5625 8.44271 11.651 8.26563 11.8281C8.08854 12.0052 8 12.2292 8 12.5C8 12.7708 8.08854 12.9948 8.26563 13.1719C8.44271 13.349 8.66667 13.4375 8.9375 13.4375H10.1875V14.6875C10.1875 14.9583 10.276 15.1823 10.4531 15.3594C10.6302 15.5365 10.8542 15.625 11.125 15.625Z" fill="#191919"/>
</g>
</g>
</svg>
