<svg width="16" height="16" viewBox="0 0 16 16" fill="none" xmlns="http://www.w3.org/2000/svg">
<g id="unarchive">
<mask id="mask0_2516_11134" style="mask-type:alpha" maskUnits="userSpaceOnUse" x="0" y="0" width="16" height="16">
<rect id="Bounding box" width="16" height="16" fill="#D9D9D9"/>
</mask>
<g mask="url(#mask0_2516_11134)">
<path id="unarchive_2" d="M3.33333 14C2.96667 14 2.65278 13.8694 2.39167 13.6083C2.13056 13.3472 2 13.0333 2 12.6667V4.33333C2 4.17778 2.02778 4.03056 2.08333 3.89167C2.13889 3.75278 2.21111 3.62222 2.3 3.5L3.23333 2.36667C3.32222 2.24444 3.43333 2.15278 3.56667 2.09167C3.7 2.03056 3.84444 2 4 2H12C12.1556 2 12.3 2.03056 12.4333 2.09167C12.5667 2.15278 12.6778 2.24444 12.7667 2.36667L13.7 3.5C13.7889 3.62222 13.8611 3.75278 13.9167 3.89167C13.9722 4.03056 14 4.17778 14 4.33333V12.6667C14 13.0333 13.8694 13.3472 13.6083 13.6083C13.3472 13.8694 13.0333 14 12.6667 14H3.33333ZM3.6 4H12.4L11.8333 3.33333H4.16667L3.6 4ZM8 11.3333C8.18889 11.3333 8.34722 11.2694 8.475 11.1417C8.60278 11.0139 8.66667 10.8556 8.66667 10.6667V8.53333L9.26667 9.13333C9.38889 9.25556 9.54445 9.31667 9.73333 9.31667C9.92222 9.31667 10.0778 9.25556 10.2 9.13333C10.3222 9.01111 10.3833 8.85556 10.3833 8.66667C10.3833 8.47778 10.3222 8.32222 10.2 8.2L8.46667 6.46667C8.4 6.4 8.32778 6.35278 8.25 6.325C8.17222 6.29722 8.08889 6.28333 8 6.28333C7.91111 6.28333 7.82778 6.29722 7.75 6.325C7.67222 6.35278 7.6 6.4 7.53333 6.46667L5.8 8.2C5.67778 8.32222 5.61667 8.47778 5.61667 8.66667C5.61667 8.85556 5.67778 9.01111 5.8 9.13333C5.92222 9.25556 6.07778 9.31667 6.26667 9.31667C6.45556 9.31667 6.61111 9.25556 6.73333 9.13333L7.33333 8.53333V10.6667C7.33333 10.8556 7.39722 11.0139 7.525 11.1417C7.65278 11.2694 7.81111 11.3333 8 11.3333Z" fill="white"/>
</g>
</g>
</svg>
