<svg width="31" height="30" viewBox="0 0 31 30" fill="none" xmlns="http://www.w3.org/2000/svg">
<g id="unarchive">
<mask id="mask0_3371_9745" style="mask-type:alpha" maskUnits="userSpaceOnUse" x="0" y="0" width="31" height="30">
<rect id="Bounding box" x="0.5" width="30" height="30" fill="#D9D9D9"/>
</mask>
<g mask="url(#mask0_3371_9745)">
<path id="unarchive_2" d="M15.4936 20.6014C15.8042 20.6014 16.0736 20.4896 16.3017 20.2661C16.5301 20.0428 16.6442 19.7762 16.6442 19.4664V16.2883L17.5436 17.1408C17.7823 17.3795 18.047 17.5003 18.3377 17.503C18.6285 17.5057 18.901 17.3774 19.1552 17.1183C19.4041 16.8643 19.5273 16.5945 19.5248 16.3089C19.5223 16.0233 19.3966 15.756 19.1477 15.507L16.3573 12.7327C16.1065 12.487 15.8202 12.3642 15.4983 12.3642C15.1762 12.3642 14.8921 12.4911 14.6461 12.7448L11.8527 15.5145C11.6141 15.7531 11.4988 16.019 11.5067 16.3123C11.5146 16.6057 11.6481 16.8818 11.907 17.1408C12.1512 17.3899 12.4161 17.5145 12.7017 17.5145C12.9871 17.5145 13.2544 17.3899 13.5036 17.1408L14.3561 16.2883V19.4664C14.3561 19.7762 14.4681 20.0428 14.692 20.2661C14.9158 20.4896 15.183 20.6014 15.4936 20.6014ZM7.58984 25.4417C6.88193 25.4417 6.28307 25.1994 5.79328 24.7148C5.30349 24.2303 5.05859 23.6392 5.05859 22.9417V8.89422C5.05859 8.58901 5.11943 8.29005 5.24109 7.99734C5.36255 7.70484 5.53474 7.43943 5.75766 7.20109L7.63047 5.26578C7.87922 5.01724 8.14276 4.83724 8.42109 4.72578C8.69964 4.61432 8.99818 4.55859 9.31672 4.55859H21.6836C22.0021 4.55859 22.3007 4.61432 22.5792 4.72578C22.8576 4.83724 23.1211 5.01724 23.3698 5.26578L25.2427 7.20109C25.4656 7.43943 25.6378 7.70484 25.7592 7.99734C25.8809 8.29005 25.9417 8.58901 25.9417 8.89422V22.9417C25.9417 23.6392 25.6968 24.2303 25.207 24.7148C24.7172 25.1994 24.1184 25.4417 23.4105 25.4417H7.58984ZM7.83984 8.55109H23.1761L21.6761 6.98859H9.32422L7.83984 8.55109Z" fill="white"/>
</g>
</g>
</svg>
