<svg width="30" height="30" viewBox="0 0 30 30" fill="none" xmlns="http://www.w3.org/2000/svg">
<g id="undo">
<mask id="mask0_2664_1992" style="mask-type:alpha" maskUnits="userSpaceOnUse" x="0" y="0" width="30" height="30">
<rect id="Bounding box" width="30" height="30" fill="#D9D9D9"/>
</mask>
<g mask="url(#mask0_2664_1992)">
<path id="undo_2" d="M10.125 23.0312C9.8125 23.0312 9.54688 22.9219 9.32812 22.7031C9.10938 22.4844 9 22.2188 9 21.9062C9 21.5938 9.10938 21.3281 9.32812 21.1094C9.54688 20.8906 9.8125 20.7812 10.125 20.7812H18C19.0417 20.7812 19.9271 20.4167 20.6563 19.6875C21.3854 18.9583 21.75 18.0729 21.75 17.0312C21.75 15.9896 21.3854 15.1042 20.6563 14.375C19.9271 13.6458 19.0417 13.2812 18 13.2812H10.3125L12.4062 15.4062C12.6354 15.6354 12.75 15.901 12.75 16.2031C12.75 16.5052 12.6354 16.7708 12.4062 17C12.1771 17.2292 11.9167 17.3438 11.625 17.3438C11.3333 17.3438 11.0729 17.2292 10.8438 17L6.78125 12.9375C6.67708 12.8333 6.59896 12.7135 6.54688 12.5781C6.49479 12.4427 6.46875 12.3021 6.46875 12.1562C6.46875 12.0104 6.49479 11.8698 6.54688 11.7344C6.59896 11.599 6.67708 11.4792 6.78125 11.375L10.8125 7.34375C11.0417 7.11458 11.3073 7 11.6094 7C11.9115 7 12.1771 7.11458 12.4062 7.34375C12.6354 7.57292 12.7552 7.83333 12.7656 8.125C12.776 8.41667 12.6667 8.67708 12.4375 8.90625L10.3125 11.0312H18C19.6667 11.0312 21.0833 11.6146 22.25 12.7812C23.4167 13.9479 24 15.3646 24 17.0312C24 18.6979 23.4167 20.1146 22.25 21.2813C21.0833 22.4479 19.6667 23.0312 18 23.0312H10.125Z" fill="white"/>
</g>
</g>
</svg>
