<svg width="35" height="35" viewBox="0 0 35 35" fill="none" xmlns="http://www.w3.org/2000/svg">
<g id="undo">
<mask id="mask0_3188_1414" style="mask-type:alpha" maskUnits="userSpaceOnUse" x="0" y="0" width="35" height="35">
<rect id="Bounding box" width="35" height="35" fill="#D9D9D9"/>
</mask>
<g mask="url(#mask0_3188_1414)">
<path id="undo_2" d="M11.6667 27.7083C11.2535 27.7083 10.9071 27.5686 10.6276 27.2891C10.3481 27.0096 10.2083 26.6632 10.2083 26.25C10.2083 25.8368 10.3481 25.4905 10.6276 25.2109C10.9071 24.9314 11.2535 24.7917 11.6667 24.7917H20.5625C22.0938 24.7917 23.4245 24.3056 24.5547 23.3333C25.6849 22.3611 26.25 21.1458 26.25 19.6875C26.25 18.2292 25.6849 17.0139 24.5547 16.0417C23.4245 15.0694 22.0938 14.5833 20.5625 14.5833H11.375L14.1458 17.3542C14.4132 17.6215 14.5469 17.9618 14.5469 18.375C14.5469 18.7882 14.4132 19.1285 14.1458 19.3958C13.8785 19.6632 13.5382 19.7969 13.125 19.7969C12.7118 19.7969 12.3715 19.6632 12.1042 19.3958L6.85417 14.1458C6.70833 14 6.60503 13.842 6.54427 13.6719C6.48351 13.5017 6.45312 13.3194 6.45312 13.125C6.45312 12.9306 6.48351 12.7483 6.54427 12.5781C6.60503 12.408 6.70833 12.25 6.85417 12.1042L12.1042 6.85417C12.3715 6.58681 12.7118 6.45312 13.125 6.45312C13.5382 6.45312 13.8785 6.58681 14.1458 6.85417C14.4132 7.12153 14.5469 7.46181 14.5469 7.875C14.5469 8.28819 14.4132 8.62847 14.1458 8.89583L11.375 11.6667H20.5625C22.9201 11.6667 24.9436 12.4323 26.6328 13.9635C28.322 15.4948 29.1667 17.4028 29.1667 19.6875C29.1667 21.9722 28.322 23.8802 26.6328 25.4115C24.9436 26.9427 22.9201 27.7083 20.5625 27.7083H11.6667Z" fill="#2F2F2F"/>
</g>
</g>
</svg>
