<svg width="30" height="31" viewBox="0 0 30 31" fill="none" xmlns="http://www.w3.org/2000/svg">
<mask id="mask0_3062_3467" style="mask-type:alpha" maskUnits="userSpaceOnUse" x="0" y="0" width="30" height="31">
<rect y="0.5" width="30" height="30" fill="#D9D9D9"/>
</mask>
<g mask="url(#mask0_3062_3467)">
<path d="M21.25 9.25H20C19.6458 9.25 19.349 9.13021 19.1094 8.89062C18.8698 8.65104 18.75 8.35417 18.75 8C18.75 7.64583 18.8698 7.34896 19.1094 7.10938C19.349 6.86979 19.6458 6.75 20 6.75H21.25V5.5C21.25 5.14583 21.3698 4.84896 21.6094 4.60938C21.849 4.36979 22.1458 4.25 22.5 4.25C22.8542 4.25 23.151 4.36979 23.3906 4.60938C23.6302 4.84896 23.75 5.14583 23.75 5.5V6.75H25C25.3542 6.75 25.651 6.86979 25.8906 7.10938C26.1302 7.34896 26.25 7.64583 26.25 8C26.25 8.35417 26.1302 8.65104 25.8906 8.89062C25.651 9.13021 25.3542 9.25 25 9.25H23.75V10.5C23.75 10.8542 23.6302 11.151 23.3906 11.3906C23.151 11.6302 22.8542 11.75 22.5 11.75C22.1458 11.75 21.849 11.6302 21.6094 11.3906C21.3698 11.151 21.25 10.8542 21.25 10.5V9.25ZM15 23L9.75 25.25C8.91667 25.6042 8.125 25.5365 7.375 25.0469C6.625 24.5573 6.25 23.8646 6.25 22.9688V6.75C6.25 6.0625 6.49479 5.47396 6.98438 4.98438C7.47396 4.49479 8.0625 4.25 8.75 4.25H17.5C17.0833 4.875 16.7708 5.47396 16.5625 6.04688C16.3542 6.61979 16.25 7.27083 16.25 8C16.25 9.5 16.724 10.8229 17.6719 11.9688C18.6198 13.1146 19.8125 13.8333 21.25 14.125C21.7292 14.1875 22.1458 14.2188 22.5 14.2188C22.8542 14.2188 23.2708 14.1875 23.75 14.125V22.9688C23.75 23.8646 23.375 24.5573 22.625 25.0469C21.875 25.5365 21.0833 25.6042 20.25 25.25L15 23Z" fill="white"/>
</g>
</svg>
