<svg width="20" height="13" viewBox="0 0 20 13" fill="none" xmlns="http://www.w3.org/2000/svg">
<path id="Vector" d="M0.84542 0.517562C0.803716 0.544101 0.834046 0.593388 1.01413 0.779163C1.10323 0.87205 1.2018 0.981998 1.23213 1.0256C1.26436 1.0692 1.38947 1.21895 1.5108 1.35923C1.63212 1.49951 1.7724 1.66633 1.82358 1.73078C1.87287 1.79523 2.00177 1.94689 2.10603 2.0701C2.21219 2.19332 2.30887 2.31275 2.32024 2.3355C2.33541 2.36203 2.34109 2.65207 2.34109 3.30418C2.34109 4.19324 2.34299 4.23494 2.37711 4.252C2.39607 4.26338 2.41692 4.26717 2.42261 4.25959C2.42829 4.2539 2.73918 4.25011 3.11262 4.252C3.73819 4.2539 4.29741 4.27854 4.79597 4.32973C5.37604 4.38659 6.18169 4.53635 6.50016 4.64251C6.57788 4.66905 6.6575 4.6899 6.67646 4.6899C6.69541 4.6899 6.76176 4.71644 6.82432 4.74677C6.88687 4.779 6.95322 4.80364 6.97218 4.80364C7.04611 4.80364 7.51054 5.02164 7.59206 5.09557C7.6186 5.12021 7.67168 5.15813 7.70959 5.18087C7.77594 5.22068 7.93707 5.39129 8.05839 5.55242C8.09061 5.59413 8.16265 5.71355 8.21762 5.81781C8.30482 5.98084 8.32189 6.03013 8.33895 6.16851C8.34842 6.25761 8.35601 6.39978 8.35601 6.48509C8.35032 6.83578 8.13611 7.41017 7.88399 7.75138C7.83091 7.82342 7.77214 7.91062 7.75698 7.94284C7.73992 7.97507 7.68305 8.04331 7.62808 8.0945C7.575 8.14568 7.50486 8.22151 7.47453 8.26321C7.3551 8.42434 6.73712 9.01958 6.54945 9.15417C6.49637 9.19208 6.2196 9.4044 6.05658 9.5352C5.90492 9.65462 5.6528 9.82713 5.63005 9.82713C5.61679 9.82713 5.57129 9.86125 5.52958 9.90295C5.46134 9.9674 5.44238 10.0053 5.38362 10.2006C5.34571 10.3238 5.29831 10.4754 5.27746 10.538C5.25471 10.6006 5.20922 10.7579 5.17699 10.8887C5.14287 11.0195 5.0879 11.2072 5.05567 11.3057C5.02155 11.4043 4.97416 11.5673 4.94951 11.6659C4.92487 11.7645 4.88127 11.918 4.85284 12.0071C4.7808 12.227 4.74099 12.3844 4.75426 12.3976C4.76753 12.4109 4.92487 12.2915 5.06136 12.1607C5.12391 12.1019 5.23007 12.0109 5.29642 11.9578C5.36277 11.9067 5.46134 11.8308 5.51442 11.791C5.5675 11.7493 5.70019 11.6583 5.81014 11.5882C5.92009 11.5162 6.04331 11.4346 6.08501 11.4062C6.17221 11.3455 6.6139 11.1048 6.79588 11.0195C6.86413 10.9873 7.04232 10.902 7.19397 10.828C7.34562 10.756 7.51244 10.6878 7.56362 10.6764C7.6167 10.6669 7.7039 10.6328 7.75888 10.6024C7.85745 10.5475 8.19488 10.428 8.34084 10.3958C8.38255 10.3863 8.48491 10.3617 8.56832 10.339C8.85646 10.2612 9.0991 10.2044 9.18441 10.1949C9.2318 10.1892 9.33037 10.1702 9.40241 10.1513C9.47634 10.1304 9.65832 10.0963 9.80997 10.0736C9.96163 10.0508 10.136 10.0262 10.1986 10.0167C10.373 9.99015 11.0213 9.93707 11.0384 9.94845C11.0478 9.95413 11.1085 9.95034 11.1767 9.94087C11.3246 9.91812 12.0336 9.91622 12.1132 9.93707C12.1928 9.95982 12.1966 10.0091 12.1208 10.0243C12.0886 10.03 12.0374 10.0356 12.007 10.0356C11.954 10.0356 11.609 10.1683 11.5635 10.2063C11.5521 10.2157 11.463 10.2499 11.3644 10.2821C11.2658 10.3162 11.1369 10.3674 11.0801 10.3958C10.8678 10.5077 10.7275 10.5721 10.6497 10.5949C10.6061 10.6081 10.4981 10.6612 10.4128 10.7143C10.3256 10.7655 10.1398 10.8678 9.99954 10.9399C9.85926 11.0119 9.69244 11.1067 9.62989 11.1503C9.4934 11.2489 9.31142 11.3683 9.16735 11.4555C9.10858 11.4915 8.95883 11.6034 8.83561 11.7019C8.71049 11.8024 8.56263 11.9199 8.50576 11.9635C8.38065 12.0602 7.97119 12.4583 7.97119 12.4829C7.97119 12.4924 9.58629 12.5 12.1037 12.5C15.5993 12.5 16.2381 12.4962 16.2476 12.4735C16.2533 12.4602 16.223 12.3465 16.1832 12.2232C16.0998 11.9749 16.0239 11.7304 15.9273 11.4005C15.8912 11.2811 15.8211 11.0536 15.7737 10.8982C15.7244 10.7408 15.6713 10.5626 15.6562 10.502C15.641 10.4413 15.6126 10.3598 15.5936 10.3219C15.5747 10.284 15.5481 10.193 15.5367 10.121C15.5102 9.97309 15.4761 9.92191 15.3567 9.86125C15.315 9.8404 15.2581 9.80059 15.2315 9.77215C15.2031 9.74561 15.1387 9.70201 15.0875 9.67737C15.0363 9.65273 14.9624 9.60344 14.9226 9.56742C14.8846 9.5333 14.8448 9.50486 14.8354 9.50486C14.8259 9.50486 14.7671 9.45747 14.7027 9.4006C14.6382 9.34373 14.5757 9.29634 14.5643 9.29634C14.5529 9.29634 14.4866 9.24326 14.4164 9.17881C14.3463 9.11246 14.2591 9.03853 14.2212 9.01199C14.1093 8.93427 13.3302 8.13999 13.2449 8.01678C12.9302 7.55992 12.8165 7.37794 12.7805 7.26799C12.7634 7.2206 12.7331 7.14098 12.7103 7.0898C12.5397 6.70877 12.5492 6.14197 12.7312 5.7818C12.9075 5.43679 13.2942 5.05197 13.7018 4.8207C13.7833 4.7752 13.9027 4.70506 13.9671 4.66336C14.0316 4.62355 14.1605 4.56289 14.2553 4.52877C14.3482 4.49275 14.4903 4.43588 14.57 4.39986C14.6496 4.36385 14.7899 4.31456 14.8827 4.29371C14.9756 4.27096 15.078 4.24442 15.1083 4.23494C15.1406 4.22546 15.2467 4.20461 15.3453 4.18755C15.4439 4.17049 15.5766 4.14206 15.6391 4.1212C15.7017 4.10225 15.804 4.07381 15.8666 4.05865C16.1794 3.98092 16.8618 3.75155 17.0552 3.65866C17.131 3.62075 17.2466 3.57525 17.3092 3.5544C17.4343 3.51459 17.5613 3.45583 17.6409 3.39896C17.6675 3.38 17.7262 3.35157 17.7736 3.33261C17.8191 3.31365 17.9044 3.26437 17.9613 3.22077C18.0182 3.17717 18.1092 3.1184 18.1603 3.08807C18.3158 3.00087 18.5471 2.81131 18.7423 2.61226C18.9167 2.43597 19.0115 2.30327 19.0987 2.12318C19.1195 2.07958 19.1461 2.03219 19.1574 2.01513C19.1707 1.99807 19.1745 1.96963 19.1688 1.95257C19.1575 1.92414 18.93 1.92224 16.3234 1.92224H13.4894L13.461 1.88054C13.4345 1.84452 13.4307 1.74595 13.4307 1.18862C13.4307 0.566849 13.4288 0.538414 13.3947 0.519458C13.3473 0.494814 0.885229 0.492919 0.84542 0.517562Z" fill="#F16436"/>
</svg>
