<svg width="30" height="30" viewBox="0 0 30 30" fill="none" xmlns="http://www.w3.org/2000/svg">
<g id="drag_indicator">
<mask id="mask0_2516_9297" style="mask-type:alpha" maskUnits="userSpaceOnUse" x="0" y="0" width="30" height="30">
<rect id="Bounding box" width="30" height="30" fill="#D9D9D9"/>
</mask>
<g mask="url(#mask0_2516_9297)">
<path id="drag_indicator_2" d="M11.2498 24.9998C10.5623 24.9998 9.97378 24.755 9.48419 24.2654C8.99461 23.7758 8.74982 23.1873 8.74982 22.4998C8.74982 21.8123 8.99461 21.2237 9.48419 20.7341C9.97378 20.2445 10.5623 19.9998 11.2498 19.9998C11.9373 19.9998 12.5259 20.2445 13.0154 20.7341C13.505 21.2237 13.7498 21.8123 13.7498 22.4998C13.7498 23.1873 13.505 23.7758 13.0154 24.2654C12.5259 24.755 11.9373 24.9998 11.2498 24.9998ZM18.7498 24.9998C18.0623 24.9998 17.4738 24.755 16.9842 24.2654C16.4946 23.7758 16.2498 23.1873 16.2498 22.4998C16.2498 21.8123 16.4946 21.2237 16.9842 20.7341C17.4738 20.2445 18.0623 19.9998 18.7498 19.9998C19.4373 19.9998 20.0259 20.2445 20.5154 20.7341C21.005 21.2237 21.2498 21.8123 21.2498 22.4998C21.2498 23.1873 21.005 23.7758 20.5154 24.2654C20.0259 24.755 19.4373 24.9998 18.7498 24.9998ZM11.2498 17.4998C10.5623 17.4998 9.97378 17.255 9.48419 16.7654C8.99461 16.2758 8.74982 15.6873 8.74982 14.9998C8.74982 14.3123 8.99461 13.7237 9.48419 13.2341C9.97378 12.7445 10.5623 12.4998 11.2498 12.4998C11.9373 12.4998 12.5259 12.7445 13.0154 13.2341C13.505 13.7237 13.7498 14.3123 13.7498 14.9998C13.7498 15.6873 13.505 16.2758 13.0154 16.7654C12.5259 17.255 11.9373 17.4998 11.2498 17.4998ZM18.7498 17.4998C18.0623 17.4998 17.4738 17.255 16.9842 16.7654C16.4946 16.2758 16.2498 15.6873 16.2498 14.9998C16.2498 14.3123 16.4946 13.7237 16.9842 13.2341C17.4738 12.7445 18.0623 12.4998 18.7498 12.4998C19.4373 12.4998 20.0259 12.7445 20.5154 13.2341C21.005 13.7237 21.2498 14.3123 21.2498 14.9998C21.2498 15.6873 21.005 16.2758 20.5154 16.7654C20.0259 17.255 19.4373 17.4998 18.7498 17.4998ZM11.2498 9.99976C10.5623 9.99976 9.97378 9.75496 9.48419 9.26538C8.99461 8.7758 8.74982 8.18726 8.74982 7.49976C8.74982 6.81226 8.99461 6.22371 9.48419 5.73413C9.97378 5.24455 10.5623 4.99976 11.2498 4.99976C11.9373 4.99976 12.5259 5.24455 13.0154 5.73413C13.505 6.22371 13.7498 6.81226 13.7498 7.49976C13.7498 8.18726 13.505 8.7758 13.0154 9.26538C12.5259 9.75496 11.9373 9.99976 11.2498 9.99976ZM18.7498 9.99976C18.0623 9.99976 17.4738 9.75496 16.9842 9.26538C16.4946 8.7758 16.2498 8.18726 16.2498 7.49976C16.2498 6.81226 16.4946 6.22371 16.9842 5.73413C17.4738 5.24455 18.0623 4.99976 18.7498 4.99976C19.4373 4.99976 20.0259 5.24455 20.5154 5.73413C21.005 6.22371 21.2498 6.81226 21.2498 7.49976C21.2498 8.18726 21.005 8.7758 20.5154 9.26538C20.0259 9.75496 19.4373 9.99976 18.7498 9.99976Z" fill="#4F4F4F"/>
</g>
</g>
</svg>
