<svg width="30" height="31" viewBox="0 0 30 31" fill="none" xmlns="http://www.w3.org/2000/svg">
<g id="join">
<mask id="mask0_2530_4760" style="mask-type:alpha" maskUnits="userSpaceOnUse" x="0" y="0" width="30" height="31">
<rect id="Bounding box" y="0.5" width="30" height="30" fill="#D9D9D9"/>
</mask>
<g mask="url(#mask0_2530_4760)">
<path id="join_2" d="M20.0002 24.25C19.4169 24.25 18.8492 24.1927 18.2971 24.0781C17.745 23.9635 17.2086 23.8021 16.6877 23.5938C17.9169 22.4688 18.8805 21.2135 19.5784 19.8281C20.2763 18.4427 20.6252 17 20.6252 15.5C20.6252 14 20.2763 12.5573 19.5784 11.1719C18.8805 9.78646 17.9169 8.53125 16.6877 7.40625C17.2086 7.19792 17.745 7.03646 18.2971 6.92188C18.8492 6.80729 19.4169 6.75 20.0002 6.75C22.4377 6.75 24.5055 7.59896 26.2034 9.29688C27.9013 10.9948 28.7502 13.0625 28.7502 15.5C28.7502 17.9375 27.9013 20.0052 26.2034 21.7031C24.5055 23.401 22.4377 24.25 20.0002 24.25ZM15.0002 22.6875C13.8544 21.8958 12.943 20.875 12.2659 19.625C11.5888 18.375 11.2502 17 11.2502 15.5C11.2502 14 11.5888 12.625 12.2659 11.375C12.943 10.125 13.8544 9.10417 15.0002 8.3125C16.1461 9.10417 17.0575 10.125 17.7346 11.375C18.4117 12.625 18.7502 14 18.7502 15.5C18.7502 17 18.4117 18.375 17.7346 19.625C17.0575 20.875 16.1461 21.8958 15.0002 22.6875ZM10.0002 24.25C7.56274 24.25 5.49504 23.401 3.79712 21.7031C2.0992 20.0052 1.25024 17.9375 1.25024 15.5C1.25024 13.0625 2.0992 10.9948 3.79712 9.29688C5.49504 7.59896 7.56274 6.75 10.0002 6.75C10.5836 6.75 11.1513 6.80729 11.7034 6.92188C12.2555 7.03646 12.7919 7.19792 13.3127 7.40625C12.0836 8.53125 11.12 9.78646 10.4221 11.1719C9.7242 12.5573 9.37524 14 9.37524 15.5C9.37524 17.1458 9.71379 18.6719 10.3909 20.0781C11.068 21.4844 12.0002 22.6771 13.1877 23.6562C12.6877 23.8438 12.1721 23.9896 11.6409 24.0938C11.1096 24.1979 10.5627 24.25 10.0002 24.25Z" fill="white"/>
</g>
</g>
</svg>
