<svg width="30" height="31" viewBox="0 0 30 31" fill="none" xmlns="http://www.w3.org/2000/svg">
<g id="note_stack_add">
<mask id="mask0_3062_3481" style="mask-type:alpha" maskUnits="userSpaceOnUse" x="0" y="0" width="30" height="31">
<rect id="Bounding box" y="0.5" width="30" height="30" fill="#D9D9D9"/>
</mask>
<g mask="url(#mask0_3062_3481)">
<path id="note_stack_add_2" d="M8.74996 25.5001V11.7188C8.74996 11.0313 8.99996 10.448 9.49996 9.96883C9.99996 9.48966 10.5937 9.25008 11.2812 9.25008H25C25.6875 9.25008 26.276 9.49487 26.7656 9.98445C27.2552 10.474 27.5 11.0626 27.5 11.7501V20.7188C27.5 21.0522 27.4375 21.3699 27.3125 21.672C27.1875 21.974 27.0104 22.2397 26.7812 22.4688L21.9687 27.2813C21.7395 27.5105 21.4739 27.6876 21.1718 27.8126C20.8697 27.9376 20.552 28.0001 20.2187 28.0001H11.25C10.5625 28.0001 9.97391 27.7553 9.48433 27.2657C8.99475 26.7761 8.74996 26.1876 8.74996 25.5001ZM2.53121 8.31258C2.40621 7.62508 2.54162 7.00529 2.93746 6.4532C3.33329 5.90112 3.87496 5.56258 4.56246 5.43758L18.125 3.03133C18.8125 2.90633 19.4322 3.04174 19.9843 3.43758C20.5364 3.83341 20.875 4.37508 21 5.06258L21.3125 6.75008H11.25C9.87496 6.75008 8.69787 7.23966 7.71871 8.21883C6.73954 9.198 6.24996 10.3751 6.24996 11.7501V23.6876C5.91662 23.5001 5.63016 23.2501 5.39058 22.9376C5.151 22.6251 4.99996 22.2709 4.93746 21.8751L2.53121 8.31258ZM16.875 19.8751V22.3751C16.875 22.7292 16.9947 23.0261 17.2343 23.2657C17.4739 23.5053 17.7708 23.6251 18.125 23.6251C18.4791 23.6251 18.776 23.5053 19.0156 23.2657C19.2552 23.0261 19.375 22.7292 19.375 22.3751V19.8751H21.875C22.2291 19.8751 22.526 19.7553 22.7656 19.5157C23.0052 19.2761 23.125 18.9792 23.125 18.6251C23.125 18.2709 23.0052 17.974 22.7656 17.7345C22.526 17.4949 22.2291 17.3751 21.875 17.3751H19.375V14.8751C19.375 14.5209 19.2552 14.224 19.0156 13.9845C18.776 13.7449 18.4791 13.6251 18.125 13.6251C17.7708 13.6251 17.4739 13.7449 17.2343 13.9845C16.9947 14.224 16.875 14.5209 16.875 14.8751V17.3751H14.375C14.0208 17.3751 13.7239 17.4949 13.4843 17.7345C13.2447 17.974 13.125 18.2709 13.125 18.6251C13.125 18.9792 13.2447 19.2761 13.4843 19.5157C13.7239 19.7553 14.0208 19.8751 14.375 19.8751H16.875Z" fill="white"/>
</g>
</g>
</svg>
